<?xml version="1.0" encoding="UTF-8"?>
<!DOCTYPE svg PUBLIC "-//W3C//DTD SVG 1.1//EN" "http://www.w3.org/Graphics/SVG/1.1/DTD/svg11.dtd">
<!-- Creator: CorelDRAW (Versão OEM) -->
<svg xmlns="http://www.w3.org/2000/svg" xml:space="preserve" width="210mm" height="297mm" version="1.1" style="shape-rendering:geometricPrecision; text-rendering:geometricPrecision; image-rendering:optimizeQuality; fill-rule:evenodd; clip-rule:evenodd"
viewBox="0 0 21000 29700"
 xmlns:xlink="http://www.w3.org/1999/xlink"
 xmlns:xodm="http://www.corel.com/coreldraw/odm/2003">
 <defs>
  <style type="text/css">
   <![CDATA[
    .fil0 {fill:#373435}
   ]]>
  </style>
 </defs>
 <g id="Camada_x0020_1">
  <metadata id="CorelCorpID_0Corel-Layer"/>
  <g id="_2014457803088">
   <path class="fil0" d="M3334.55 5650.97c0,127 -33.87,93.13 93.13,93.13 93.13,-135.47 127,-93.13 118.53,-194.73 -127,152.4 -93.13,33.86 -93.13,313.26 220.13,0 685.8,-50.8 414.87,76.2 160.86,194.74 -84.67,76.2 152.4,50.8 245.53,59.27 -25.4,-8.46 541.86,-237.06 220.14,-93.14 457.2,-160.87 694.27,-194.74 254,-33.86 618.07,-8.46 787.4,25.4 397.93,76.2 499.53,203.2 677.33,160.87 304.8,-67.73 42.34,-25.4 -101.6,-194.73l84.67 -50.8c127,-59.27 0,-25.4 127,0l152.4 16.93c84.67,-8.47 169.33,-16.93 270.93,-16.93l194.74 16.93c135.46,16.93 270.93,203.2 355.6,330.2 152.4,-143.93 50.8,67.73 42.33,-152.4 0,-143.93 50.8,50.8 -16.93,-84.67 -110.07,-186.26 -499.54,-440.26 -685.8,-533.4 -287.87,-143.93 -668.87,-304.8 -1058.34,-313.26 220.14,-973.67 1634.07,-1515.54 2633.14,-914.4 491.06,304.8 685.8,592.66 931.33,1126.06 143.93,304.8 296.33,829.74 338.67,1185.34 25.4,194.73 -8.47,330.2 67.73,448.73 186.27,440.27 143.93,4961.47 135.47,5816.6 -16.94,982.13 16.93,1964.27 16.93,2946.4 -8.47,491.07 -25.4,973.67 -42.33,1456.27 -16.94,423.33 -127,982.13 -127,1286.93l59.26 -482.6c25.4,-160.87 42.34,-347.13 50.8,-541.87 59.27,-347.13 101.6,-872.06 59.27,-1286.93l0 -1354.67 25.4 -2455.33 93.13 -2184.4c101.6,-127 50.8,-42.33 237.07,-152.4l127 -93.13c59.27,-84.67 -42.33,177.8 25.4,-67.74l25.4 -152.4c8.47,-16.93 8.47,-25.4 8.47,-42.33 8.46,-16.93 8.46,-33.87 16.93,-42.33 0,-8.47 0,-33.87 8.47,-42.34l33.86 2531.54 8.47 2336.8 -16.93 2006.6 -8.47 956.73c0,-1854.2 42.33,-3742.27 59.27,-5604.93 8.46,-1032.94 -84.67,-4859.87 237.06,-5511.8l76.2 -160.87c16.94,-84.67 33.87,-160.87 50.8,-237.07 186.27,-736.6 651.94,-1557.86 1430.87,-1820.33 279.4,-93.13 304.8,-42.33 364.07,-127 76.2,-76.2 110.06,-93.13 287.86,-101.6 67.74,-8.47 262.47,0 347.14,0l-143.94 -33.87c-152.4,-42.33 -279.4,-93.13 -347.13,-16.93 330.2,0 220.13,-50.8 254,-67.73 118.53,-59.27 127,-50.8 237.07,-127 25.4,-143.94 50.8,67.73 0,-127 -50.8,-211.67 -33.87,-25.4 -50.8,-16.94 84.66,-76.2 59.26,16.94 152.4,-16.93l42.33 -25.4c143.93,-186.27 -33.87,-237.07 -143.93,-110.07 228.6,0 237.06,50.8 491.06,50.8l-194.73 -143.93c-59.27,-101.6 110.07,25.4 -67.73,-42.33l-474.14 -59.27c-677.33,0 -1151.46,76.2 -1667.93,440.27 -313.27,220.13 -491.07,389.46 -719.67,711.2 -93.13,127 -203.2,304.8 -262.46,423.33 -84.67,160.87 -110.07,389.47 -245.54,491.07 -33.86,-414.87 -626.53,-1176.87 -897.46,-1413.94 -702.74,-584.2 -1837.27,-838.2 -2751.67,-516.46 -499.53,177.8 -719.67,372.53 -1058.33,711.2 -237.07,237.06 -592.67,846.66 -601.14,1168.4 -508,0 -1854.2,558.8 -1862.66,889z"/>
   <path class="fil0" d="M14138.01 20577.7c-194.73,42.33 -135.46,-50.8 -194.73,127l-254 -355.6c-8.47,0 -25.4,-8.47 -33.87,-16.93 -84.66,-33.87 -186.26,-8.47 -304.8,0 16.94,-8.47 42.34,-25.4 50.8,-33.87l93.14 -110.07c-372.54,59.27 -1794.94,982.14 -2091.27,1244.6 -897.47,753.54 -1473.2,1811.87 -1625.6,3039.54 -50.8,440.26 -25.4,812.8 -59.27,1261.53 -33.86,372.53 -93.13,863.6 177.8,1100.67 279.4,245.53 753.54,101.6 872.07,-194.74 330.2,-855.13 -745.07,-3107.26 1744.13,-4936.06 516.47,-389.47 1117.6,-668.87 1447.8,-905.94 177.8,-118.53 101.6,-33.86 177.8,-220.13z"/>
   <path class="fil0" d="M10802.15 16090.37c-152.4,160.86 25.4,-25.4 -76.2,135.46 -59.27,93.14 -76.2,160.87 -228.6,186.27 -211.67,42.33 -93.14,-8.47 -110.07,-16.93 16.93,8.46 76.2,42.33 76.2,50.8 42.33,59.26 42.33,-42.34 33.87,84.66 -8.47,16.94 -59.27,101.6 -84.67,127 -127,110.07 118.53,-25.4 -160.87,76.2l-42.33 -931.33c42.33,414.87 0,939.8 -59.27,1286.93 93.14,101.6 59.27,33.87 101.6,194.74 8.47,42.33 8.47,160.86 8.47,203.2 59.27,-296.34 -203.2,296.33 93.13,-93.14l440.27 -550.33c0,279.4 -16.93,431.8 -84.67,685.8 -42.33,169.33 8.47,143.93 -186.26,279.4 -8.47,8.47 -50.8,33.87 -59.27,42.33 -152.4,93.14 -25.4,-25.4 -118.53,67.74 -8.47,-8.47 -25.4,-50.8 -33.87,-42.34l-84.67 -67.73c-8.46,0 -16.93,8.47 -16.93,16.93l-110.07 -194.73 -59.26 482.6c0,-304.8 110.06,-863.6 127,-1286.93 16.93,-482.6 33.86,-965.2 42.33,-1456.27 0,-982.13 -33.87,-1964.27 -16.93,-2946.4 8.46,-855.13 50.8,-5376.33 -135.47,-5816.6 0,668.87 50.8,1270 50.8,1989.67l0 6087.53c0,1964.27 194.73,5181.6 -1998.13,5816.6 -186.27,50.8 -118.54,8.47 -160.87,76.2 -118.53,101.6 177.8,101.6 -245.53,101.6l-347.14 50.8c16.94,8.47 33.87,8.47 42.34,33.87 16.93,84.66 16.93,-93.14 110.06,254 474.14,-16.94 270.94,-101.6 880.54,-203.2 575.73,-101.6 -8.47,152.4 516.46,-42.34 127,-42.33 16.94,-50.8 143.94,-8.46 169.33,50.8 110.06,0 -16.94,59.26l143.94 50.8c330.2,76.2 905.93,-821.26 1032.93,-1032.93 609.6,-1066.8 685.8,-2243.67 685.8,-3539.07 0,-338.66 50.8,-584.2 50.8,-982.13l0 -7416.8c0,-643.47 143.93,-1701.8 143.93,-1972.73 -321.73,651.93 -228.6,4478.86 -237.06,5511.8 -16.94,1862.66 -59.27,3750.73 -59.27,5604.93l8.47 -956.73z"/>
   <path class="fil0" d="M14730.68 4220.1c50.8,313.27 169.33,279.4 245.53,592.67 -1794.93,0 -3031.06,2446.86 -2048.93,2683.93 533.4,127 524.93,-550.33 541.87,-651.93 135.46,-643.47 863.6,-1058.34 1540.93,-1219.2l211.67 -76.2 287.86 -101.6c42.34,-8.47 254,0 304.8,8.46 152.4,16.94 321.74,76.2 482.6,93.14 186.27,-152.4 93.14,33.86 254,-42.34 8.47,-8.46 42.34,-42.33 50.8,-42.33l50.8 -59.27c-118.53,-194.73 -76.2,-33.86 -143.93,-203.2 93.13,-42.33 59.27,-8.46 127,-42.33 169.33,-76.2 -203.2,-76.2 203.2,-50.8 -16.93,-8.47 -42.33,-33.87 -50.8,-42.33l-93.13 -110.07c-67.74,-110.07 -635,-177.8 -787.4,-143.93l-237.07 -643.47c-127,-220.13 8.47,-101.6 -203.2,-194.73 0,220.13 93.13,16.93 -50.8,152.4 -152.4,-279.4 -364.07,-152.4 -440.27,-152.4 186.27,127 101.6,42.33 42.34,245.53 -135.47,59.27 -143.94,50.8 -287.87,0z"/>
   <path class="fil0" d="M7652.55 18715.03c-279.4,110.07 -1524,1413.94 -3352.8,355.6 -135.47,-76.2 -101.6,-76.2 -279.4,-110.06l127 143.93 -245.54 -67.73c-16.93,0 -127,-8.47 -135.46,-8.47 -211.67,-33.87 -228.6,-237.07 -728.14,-160.87l-245.53 -101.6c76.2,440.27 1227.67,1202.27 1761.07,1380.07 863.6,279.4 270.93,110.07 609.6,313.27 127,76.2 -59.27,16.93 84.66,25.4 516.47,-76.2 143.94,-304.8 787.4,-50.8l-50.8 -237.07c321.74,0 618.07,-135.47 880.54,-160.87 186.26,101.6 389.46,-67.73 541.86,-143.93 186.27,-93.13 287.87,-152.4 465.67,-270.93 262.47,-186.27 609.6,-499.54 668.87,-855.14l-152.4 143.94c33.86,-270.94 16.93,-135.47 101.6,-330.2 33.86,-84.67 42.33,-76.2 50.8,-203.2 16.93,127 25.4,143.93 -118.54,194.73 -8.46,8.47 -25.4,8.47 -33.86,8.47l-364.07 127c-8.47,8.46 -25.4,8.46 -33.87,16.93 0,0 -16.93,0 -25.4,8.47 0,0 -16.93,0 -25.4,0 -8.46,8.46 -16.93,8.46 -25.4,8.46 -203.2,16.94 -25.4,-177.8 -211.66,118.54 -118.54,-93.14 -228.6,110.06 -50.8,-143.94z"/>
   <path class="fil0" d="M18261.28 15616.23c0,321.74 84.67,508 42.33,880.54 -25.4,237.06 -76.2,516.46 -143.93,736.6 -177.8,558.8 -296.33,719.66 -618.07,1151.46 -643.46,872.07 -1557.86,1024.47 -2370.66,1210.74l0 -143.94c-16.94,8.47 -42.34,8.47 -50.8,33.87l-101.6 59.27c177.8,177.8 -211.67,177.8 347.13,50.8 -135.47,169.33 211.67,152.4 -296.33,152.4l42.33 135.46c-16.93,0 -33.87,-8.46 -33.87,8.47l-406.4 194.73c-118.53,84.67 -16.93,50.8 -127,101.6l1210.74 -59.26c-16.94,16.93 -33.87,0 -50.8,25.4l-186.27 50.8c-8.47,0 -25.4,8.46 -33.87,8.46 -321.73,93.14 -787.4,-101.6 -1049.86,118.54 1320.8,0 1947.33,-59.27 2929.46,-702.74 220.14,-152.4 491.07,-364.06 668.87,-558.8 592.67,-677.33 1024.47,-1600.2 1016,-2565.4 0,-270.93 93.13,-939.8 -143.93,-1134.53 0,304.8 50.8,524.93 50.8,889 0,33.87 -25.4,948.27 -84.67,829.73 0,-8.46 -8.47,33.87 -16.93,50.8l8.46 -516.46c0,33.86 118.54,194.73 -296.33,135.46 -8.47,0 -8.47,127 -59.27,-8.46 -8.46,-16.94 -25.4,-8.47 -59.26,-8.47l8.46 -287.87c0,245.54 -8.46,431.8 -160.86,584.2 84.66,-228.6 211.66,-1126.06 -33.87,-1422.4z"/>
   <path class="fil0" d="M17770.21 15175.97c0,0 118.54,-42.34 16.94,84.66 -160.87,194.74 -931.34,110.07 -990.6,110.07 118.53,59.27 8.46,-33.87 84.66,152.4 -16.93,8.47 -33.86,16.93 -50.8,16.93 -8.46,8.47 -25.4,16.94 -42.33,25.4 -16.93,0 -33.87,8.47 -42.33,8.47 -84.67,25.4 -355.6,-8.47 -254,237.07l-194.74 -93.14c33.87,50.8 -8.46,152.4 414.87,228.6 423.33,67.74 1278.47,33.87 1549.4,-330.2 245.53,296.34 118.53,1193.8 33.87,1422.4 152.4,-152.4 160.86,-338.66 160.86,-584.2l-8.46 287.87c33.86,0 50.8,-8.47 59.26,8.47 50.8,135.46 50.8,8.46 59.27,8.46 414.87,59.27 296.33,-101.6 296.33,-135.46l-8.46 516.46c8.46,-16.93 16.93,-59.26 16.93,-50.8 59.27,118.54 84.67,-795.86 84.67,-829.73 0,-364.07 -50.8,-584.2 -50.8,-889 186.26,-347.13 1422.4,-965.2 1422.4,-2946.4 0,-372.53 50.8,-491.07 -101.6,-584.2l-93.14 1227.67c0,-321.74 50.8,-499.54 50.8,-821.27 33.87,186.27 -59.26,211.67 -59.26,211.67 -194.74,143.93 16.93,-16.94 -76.2,25.4 -127,76.2 -16.94,8.46 -118.54,118.53 -101.6,127 16.94,76.2 -169.33,143.93 -67.73,-169.33 -42.33,-313.26 -59.27,-541.86 152.4,245.53 -50.8,846.66 -59.26,1109.13 -127,-160.87 -67.74,8.47 -76.2,-228.6 0,-135.47 76.2,-160.87 76.2,-609.6 0,-169.33 8.46,-491.07 -59.27,-660.4l-93.13 -177.8c0,846.67 245.53,1219.2 -304.8,2243.67 -245.54,448.73 -541.87,753.53 -956.74,1007.53 -228.6,143.93 -330.2,127 -457.2,287.87z"/>
   <path class="fil0" d="M2250.81 7513.63c-211.66,169.34 -143.93,465.67 -143.93,838.2 -8.47,1210.74 431.8,508 -381,1380.07 -93.13,101.6 -143.93,177.8 -220.13,279.4 -186.27,237.07 -160.87,186.27 -135.47,304.8 25.4,127 59.27,93.13 59.27,93.13 33.86,8.47 8.46,-50.8 194.73,76.2 8.47,0 16.93,8.47 25.4,16.94l220.13 143.93c127,93.13 -203.2,-42.33 84.67,59.27 169.33,-50.8 279.4,-457.2 541.87,-635 76.2,152.4 76.2,194.73 177.8,364.06 143.93,237.07 423.33,601.14 635,787.4 203.2,177.8 50.8,67.74 169.33,76.2 127,0 101.6,33.87 101.6,-101.6 -16.93,0 -84.67,-33.86 -101.6,-42.33 152.4,33.87 228.6,8.47 279.4,25.4 194.73,67.73 50.8,25.4 160.87,220.13 304.8,-67.73 25.4,-50.8 245.53,-143.93 203.2,93.13 -8.47,203.2 584.2,101.6 50.8,-8.47 25.4,0 84.67,0l313.26 -8.47c-440.26,-8.46 -110.06,0 -245.53,-101.6 -25.4,-59.26 127,16.94 -186.27,-110.06 -558.8,-211.67 -1032.93,-643.47 -1346.2,-1159.94 -592.66,-990.6 -381,-1634.06 -381,-2413 -262.46,313.27 -160.86,1202.27 -50.8,1422.4 -186.26,-152.4 -42.33,16.94 -143.93,-177.8 -76.2,-135.46 -59.27,-643.46 -33.87,-804.33 25.4,-254 25.4,42.33 33.87,-211.67 127,203.2 -16.93,152.4 -143.93,203.2 -33.87,-245.53 -76.2,-101.6 -8.47,-270.93 0,0 67.73,0 8.47,-118.53 -110.07,-211.67 177.8,160.86 -118.54,-127 -152.4,-152.4 -152.4,8.46 -135.46,-177.8 -50.8,237.06 -76.2,338.66 -118.54,643.46 -16.93,152.4 -25.4,186.27 -25.4,355.6 0,67.74 8.47,338.67 -67.73,389.47l67.73 -1176.87z"/>
   <path class="fil0" d="M726.81 12915.37c8.47,524.93 245.54,1066.8 474.14,1490.13 67.73,110.07 143.93,287.87 262.46,330.2 220.14,0 93.14,-160.87 0,-203.2l406.4 25.4c59.27,8.47 101.6,0 160.87,84.67 67.73,118.53 67.73,143.93 76.2,287.86 397.93,-16.93 321.73,-84.66 567.27,203.2 245.53,287.87 414.86,-84.66 414.86,186.27l143.94 -143.93c237.06,-8.47 186.26,-279.4 719.66,-508 372.54,-160.87 694.27,-127 1193.8,-127 84.67,-118.54 194.74,-203.2 186.27,-389.47 -50.8,-1024.47 -2480.73,-135.47 -2692.4,635 -228.6,-67.73 -482.6,-406.4 -618.07,-609.6 -211.66,-321.73 -177.8,-313.27 -296.33,-626.53 -33.87,-84.67 0,-33.87 -50.8,-110.07 -84.67,-143.93 25.4,-25.4 -110.07,-127 25.4,389.47 16.94,118.53 -50.8,245.53 -59.26,-304.8 -203.2,-550.33 -101.6,-643.46 -8.46,177.8 0,169.33 -42.33,296.33 -237.07,-84.67 -118.53,59.27 -254,-169.33 -67.73,-127 -42.33,-465.67 -42.33,-618.07 8.46,8.47 67.73,-50.8 8.46,50.8 -76.2,143.93 -186.26,50.8 -211.66,50.8l8.46 635 -152.4 -245.53z"/>
   <path class="fil0" d="M17431.55 10019.77c-279.4,110.06 -194.74,220.13 -601.14,482.6 -897.46,592.66 -1261.53,211.66 -1363.13,711.2 -67.73,347.13 211.67,541.86 533.4,524.93 1032.93,-59.27 1964.27,-922.87 2413,-1769.53 177.8,127 152.4,194.73 287.87,194.73l245.53 152.4c-76.2,-270.93 -42.33,33.87 -143.93,-397.93 152.4,-93.14 -25.4,8.46 245.53,-50.8 -110.07,-127 0,-101.6 -194.73,-143.94 237.06,-16.93 143.93,-118.53 143.93,-194.73 0,-84.67 42.33,-25.4 -33.87,-110.07 -93.13,-101.6 -42.33,-50.8 -160.86,-84.66 0,-203.2 42.33,-254 50.8,-440.27l-84.67 93.13c-8.47,16.94 -25.4,59.27 -33.87,50.8 -8.46,-8.46 -25.4,33.87 -25.4,50.8l0 -245.53c0,16.93 0,-25.4 -16.93,33.87 0,0 -8.47,8.46 -8.47,8.46l-8.46 287.87c-160.87,0 -186.27,-33.87 -279.4,50.8 -194.74,177.8 -313.27,524.93 -321.74,541.87l-67.73 84.66c-389.47,423.34 -296.33,-8.46 -482.6,262.47 -127,0 -93.13,33.87 -93.13,-93.13z"/>
   <path class="fil0" d="M7356.21 9232.37c262.47,177.8 59.27,67.73 152.4,-50.8 -110.06,-50.8 -160.86,-101.6 -194.73,-50.8 186.27,84.66 203.2,-33.87 431.8,-84.67l118.53 -16.93c84.67,-8.47 143.94,110.06 186.27,-93.14l152.4 143.94c211.67,-169.34 76.2,101.6 42.33,-143.94 -8.46,-127 -67.73,-143.93 -237.06,-254 -143.94,-93.13 -203.2,-135.46 -372.54,-220.13 -338.66,-169.33 -414.86,-237.07 -829.73,-347.13 -1769.53,-482.6 -2768.6,177.8 -2142.07,719.66 389.47,330.2 922.87,-389.46 2286,270.94 76.2,33.86 118.54,67.73 194.74,101.6 220.13,84.66 59.26,67.73 211.66,25.4z"/>
   <path class="fil0" d="M7263.08 17047.1c355.6,160.87 59.27,50.8 194.73,-50.8 -143.93,101.6 84.67,-42.33 -50.8,-152.4 110.07,152.4 -67.73,25.4 118.54,110.07 245.53,101.6 237.06,-50.8 567.26,-59.27 0,-101.6 16.94,0 -25.4,-93.13l-67.73 -152.4c-8.47,-101.6 33.87,-25.4 -76.2,-118.54 -59.27,-50.8 -110.07,-76.2 -186.27,-110.06 -135.46,-67.74 -304.8,-118.54 -431.8,-152.4 -1422.4,-397.94 -3242.73,1041.4 -2345.26,1600.2 338.66,211.66 533.4,8.46 694.26,-270.94 135.47,-220.13 364.07,-406.4 643.47,-491.06 694.27,-203.2 668.87,33.86 965.2,-59.27z"/>
   <path class="fil0" d="M12122.95 9723.43c0,169.34 186.26,101.6 389.46,101.6 93.14,-143.93 50.8,-127 211.67,-228.6 8.47,-8.46 16.93,-8.46 25.4,-16.93l601.13 -541.87c228.6,42.34 440.27,16.94 736.6,0 270.94,84.67 330.2,-177.8 1329.27,-194.73 211.67,0 296.33,-25.4 381,-160.87 177.8,-304.8 25.4,-592.66 -228.6,-685.8 -254,-93.13 -711.2,8.47 -956.73,42.34 -889,143.93 -1778,677.33 -2319.87,1363.13 -8.47,8.47 -110.07,135.47 -110.07,135.47 -127,194.73 -67.73,67.73 -59.26,186.26z"/>
   <path class="fil0" d="M5248.01 20484.57c186.27,457.2 1346.2,880.53 1769.54,922.86 414.86,50.8 922.86,25.4 1261.53,-50.8l702.73 -279.4c220.14,-118.53 101.6,8.47 194.74,-203.2l-143.94 -50.8c127,-59.26 186.27,-8.46 16.94,-59.26 -127,-42.34 -16.94,-33.87 -143.94,8.46 -524.93,194.74 59.27,-59.26 -516.46,42.34 -609.6,101.6 -406.4,186.26 -880.54,203.2 -93.13,-347.14 -93.13,-169.34 -110.06,-254 -8.47,-25.4 -25.4,-25.4 -42.34,-33.87l347.14 -50.8c423.33,0 127,0 245.53,-101.6 -474.13,0 -1591.73,33.87 -1862.67,-338.67l584.2 -50.8c270.94,-84.66 118.54,-25.4 194.74,-152.4 -262.47,25.4 -558.8,160.87 -880.54,160.87l50.8 237.07c-643.46,-254 -270.93,-25.4 -787.4,50.8z"/>
   <path class="fil0" d="M8143.61 9968.97c76.2,491.06 567.27,736.6 440.27,1871.13 -25.4,254 -152.4,508 -93.13,685.8 -160.87,355.6 -59.27,59.27 50.8,194.73 25.4,-143.93 59.26,-228.6 93.13,-355.6 -42.33,220.14 118.53,76.2 304.8,127 330.2,93.14 84.67,194.74 287.87,279.4 186.26,-93.13 270.93,-855.13 287.86,-1134.53 25.4,-262.47 -16.93,-448.73 -59.26,-668.87 -50.8,-296.33 -67.74,-482.6 -228.6,-601.13l50.8 237.07 -169.34 0c0,-8.47 -16.93,8.46 -33.86,0l-42.34 -50.8c-8.46,-8.47 -16.93,-25.4 -16.93,-33.87l-228.6 -448.73c-177.8,-8.47 -135.47,-8.47 -245.53,-50.8 -33.87,-118.54 -177.8,-169.34 42.33,-194.74l-440.27 143.94z"/>
   <path class="fil0" d="M726.81 12915.37l152.4 245.53 -8.46 -635c25.4,0 135.46,93.13 211.66,-50.8 59.27,-101.6 0,-42.33 -8.46,-50.8 0,152.4 -25.4,491.07 42.33,618.07 135.47,228.6 16.93,84.66 254,169.33 42.33,-127 33.87,-118.53 42.33,-296.33 -101.6,93.13 42.34,338.66 101.6,643.46 67.74,-127 76.2,143.94 50.8,-245.53 93.14,-262.47 -160.86,-651.93 -16.93,-1397 127,-643.47 364.07,-948.27 406.4,-1210.73 -287.87,-101.6 42.33,33.86 -84.67,-59.27l-220.13 -143.93c-8.47,-8.47 -16.93,-16.94 -25.4,-16.94 -186.27,-127 -160.87,-67.73 -194.73,-76.2 0,0 -33.87,33.87 -59.27,-93.13 -118.53,67.73 -59.27,16.93 -135.47,101.6 -84.66,93.13 -25.4,16.93 -84.66,127 -296.34,533.4 -660.4,1828.8 -423.34,2370.67z"/>
   <path class="fil0" d="M12122.95 9723.43c-262.47,169.34 -423.34,694.27 -499.54,1024.47 -59.26,254 -160.86,1134.53 8.47,1286.93 16.93,16.94 42.33,8.47 50.8,50.8l67.73 93.14c8.47,16.93 25.4,33.86 25.4,50.8 0,-406.4 -67.73,-220.14 -50.8,-592.67 16.94,-482.6 0,76.2 160.87,-228.6 0,-8.47 8.47,-16.93 8.47,-25.4l-25.4 -93.13c118.53,0 76.2,-8.47 152.4,25.4 25.4,8.46 76.2,42.33 84.66,50.8 8.47,8.46 16.94,33.86 118.54,59.26 118.53,-143.93 135.46,-152.4 143.93,-279.4l0 0c0,-423.33 0,-118.53 101.6,-245.53 59.27,-50.8 67.73,-127 101.6,-237.07 186.27,-491.06 753.53,-1168.4 1236.13,-1413.93 279.4,-143.93 203.2,-84.67 279.4,-211.67 -296.33,16.94 -508,42.34 -736.6,0l-601.13 541.87c-8.47,8.47 -16.93,8.47 -25.4,16.93 -160.87,101.6 -118.53,84.67 -211.67,228.6 -203.2,0 -389.46,67.74 -389.46,-101.6z"/>
   <path class="fil0" d="M1463.41 14735.7c67.74,160.87 8.47,25.4 67.74,118.53l262.46 338.67c101.6,93.13 313.27,262.47 406.4,330.2l-160.86 863.6c-25.4,186.27 -25.4,660.4 67.73,855.13l143.93 143.94c0,-110.07 -59.26,-1007.54 -84.66,-1049.87 67.73,524.93 -25.4,728.13 550.33,931.33l0 -397.93c-50.8,118.53 42.33,423.33 76.2,567.27 186.27,-321.74 -270.93,-914.4 93.13,-1473.2 50.8,-25.4 33.87,8.46 84.67,-118.54 33.87,-76.2 42.33,-143.93 76.2,-220.13 84.67,-228.6 143.93,-152.4 186.27,-448.73l-143.94 143.93c0,-270.93 -169.33,101.6 -414.86,-186.27 -245.54,-287.86 -169.34,-220.13 -567.27,-203.2 -8.47,-143.93 -8.47,-169.33 -76.2,-287.86 -59.27,-84.67 -101.6,-76.2 -160.87,-84.67l-406.4 -25.4c93.14,42.33 220.14,203.2 0,203.2z"/>
   <path class="fil0" d="M13494.55 20188.23l-93.14 110.07c-8.46,8.47 -33.86,25.4 -50.8,33.87 118.54,-8.47 220.14,-33.87 304.8,0 8.47,8.46 25.4,16.93 33.87,16.93l254 355.6c59.27,-177.8 0,-84.67 194.73,-127 110.07,8.47 -16.93,101.6 186.27,-59.27 0,0 67.73,-67.73 67.73,-67.73 67.74,-110.07 42.34,-16.93 42.34,-118.53 262.46,-220.14 728.13,-25.4 1049.86,-118.54 8.47,0 25.4,-8.46 33.87,-8.46l186.27 -50.8c16.93,-25.4 33.86,-8.47 50.8,-25.4l-1210.74 59.26c110.07,-50.8 8.47,-16.93 127,-101.6l406.4 -194.73c0,-16.93 16.94,-8.47 33.87,-8.47l-42.33 -135.46c508,0 160.86,16.93 296.33,-152.4 -558.8,127 -169.33,127 -347.13,-50.8l101.6 -59.27c8.46,-25.4 33.86,-25.4 50.8,-33.87 76.2,-25.4 0,42.34 76.2,-67.73 33.86,-50.8 59.26,-110.07 76.2,-169.33 50.8,-135.47 84.66,-245.54 93.13,-448.74l-93.13 93.14c-8.47,16.93 -16.94,59.26 -25.4,50.8 -8.47,-8.47 -25.4,33.86 -33.87,50.8 0,-270.94 50.8,-313.27 50.8,-541.87 50.8,330.2 -8.47,143.93 -67.73,211.67 -25.4,-194.74 -8.47,-160.87 -76.2,-270.94 -84.67,186.27 50.8,93.14 -143.94,127 -110.06,16.94 -160.86,-25.4 -160.86,-25.4 -8.47,-16.93 -25.4,-8.46 -42.34,-16.93 0,482.6 33.87,127 -143.93,270.93 76.2,-203.2 194.73,-482.6 0,-643.46 0,618.06 -110.07,922.86 -372.53,1303.86 -127,177.8 -245.54,279.4 -397.94,431.8 -237.06,220.14 -397.93,237.07 -414.86,381z"/>
   <path class="fil0" d="M3334.55 5650.97c-347.14,0 -855.14,982.13 -982.14,1270 -84.66,177.8 -186.26,372.53 -101.6,592.66l-67.73 1176.87c76.2,-50.8 67.73,-321.73 67.73,-389.47 0,-169.33 8.47,-203.2 25.4,-355.6 42.34,-304.8 67.74,-406.4 118.54,-643.46 -16.94,186.26 -16.94,25.4 135.46,177.8 296.34,287.86 8.47,-84.67 118.54,127 59.26,118.53 -8.47,118.53 -8.47,118.53 -67.73,169.33 -25.4,25.4 8.47,270.93 127,-50.8 270.93,0 143.93,-203.2 -8.47,254 -8.47,-42.33 -33.87,211.67 -25.4,160.87 -42.33,668.87 33.87,804.33 101.6,194.74 -42.33,25.4 143.93,177.8 -110.06,-220.13 -211.66,-1109.13 50.8,-1422.4 67.74,-42.33 84.67,-186.26 186.27,-406.4 313.27,-753.53 694.27,-804.33 846.67,-1168.4 -237.07,25.4 8.46,143.94 -152.4,-50.8 270.93,-127 -194.74,-76.2 -414.87,-76.2 0,-279.4 -33.87,-160.86 93.13,-313.26 8.47,101.6 -25.4,59.26 -118.53,194.73 -127,0 -93.13,33.87 -93.13,-93.13z"/>
   <path class="fil0" d="M8490.75 12525.9c-220.14,135.47 -313.27,567.27 -762,914.4 -160.87,118.53 -321.74,186.27 -389.47,397.93 -93.13,279.4 237.07,872.07 838.2,389.47 169.33,-143.93 270.93,-262.47 423.33,-414.87 237.07,-228.6 567.27,-660.4 626.54,-1041.4 -203.2,-84.66 42.33,-186.26 -287.87,-279.4 -186.27,-50.8 -347.13,93.14 -304.8,-127 -33.87,127 -67.73,211.67 -93.13,355.6 -110.07,-135.46 -211.67,160.87 -50.8,-194.73z"/>
   <path class="fil0" d="M2106.88 17241.83c25.4,423.34 296.33,1092.2 541.87,1413.94 135.46,169.33 76.2,101.6 143.93,110.06l245.53 101.6c499.54,-76.2 516.47,127 728.14,160.87 8.46,0 118.53,8.47 135.46,8.47l245.54 67.73 -127 -143.93c0,-84.67 25.4,-42.34 -59.27,-135.47 -237.07,-245.53 -431.8,-254 -829.73,-1041.4 -364.07,-745.07 -245.54,-1168.4 -245.54,-1820.33 -364.06,558.8 93.14,1151.46 -93.13,1473.2 -33.87,-143.94 -127,-448.74 -76.2,-567.27l0 397.93c-575.73,-203.2 -482.6,-406.4 -550.33,-931.33 25.4,42.33 84.66,939.8 84.66,1049.87l-143.93 -143.94z"/>
   <path class="fil0" d="M7263.08 17047.1c160.87,211.67 982.13,465.67 474.13,1456.27l-84.66 211.66c-177.8,254 -67.74,50.8 50.8,143.94 186.26,-296.34 8.46,-101.6 211.66,-118.54 8.47,0 16.94,0 25.4,-8.46 8.47,0 25.4,0 25.4,0 8.47,-8.47 25.4,-8.47 25.4,-8.47 8.47,-8.47 25.4,-8.47 33.87,-16.93l364.07 -127c8.46,0 25.4,0 33.86,-8.47 143.94,-50.8 135.47,-67.73 118.54,-194.73 -8.47,127 -16.94,118.53 -50.8,203.2 -84.67,194.73 -67.74,59.26 -101.6,330.2l152.4 -143.94c152.4,-50.8 186.26,-364.06 220.13,-524.93 84.67,-465.67 -237.07,-1498.6 -762,-1591.73l67.73 152.4c42.34,93.13 25.4,-8.47 25.4,93.13 -330.2,8.47 -321.73,160.87 -567.26,59.27 -186.27,-84.67 -8.47,42.33 -118.54,-110.07 135.47,110.07 -93.13,254 50.8,152.4 -135.46,101.6 160.87,211.67 -194.73,50.8z"/>
   <path class="fil0" d="M17329.95 6184.37c84.66,211.66 59.26,127 237.06,313.26 186.27,194.74 296.34,389.47 397.94,626.54 25.4,84.66 33.86,101.6 67.73,186.26l84.67 152.4 143.93 440.27c8.47,169.33 0,372.53 0,541.87 93.13,-228.6 59.27,-635 25.4,-770.47 -84.67,-338.67 -59.27,-76.2 186.27,-228.6l194.73 -194.73c33.87,-50.8 33.87,-42.34 33.87,-101.6 0,-169.34 -33.87,-42.34 -42.34,-25.4 143.94,110.06 262.47,1557.86 50.8,1718.73l0 245.53c0,-16.93 16.94,-59.26 25.4,-50.8 8.47,8.47 25.4,-33.86 33.87,-50.8l84.67 -93.13c42.33,-25.4 33.86,16.93 67.73,-127 254,-922.87 -152.4,-2353.73 -787.4,-2937.93 -143.93,-127 -42.33,-59.27 -211.67,-135.47l42.34 152.4 -414.87 270.93c-152.4,101.6 8.47,67.74 -220.13,67.74z"/>
   <path class="fil0" d="M14239.61 17241.83l194.74 -59.26c25.4,42.33 25.4,220.13 220.13,160.86 33.87,-8.46 245.53,-245.53 270.93,-397.93 0,-93.13 16.94,-42.33 -59.26,-135.47 -584.2,-753.53 -2870.2,-1261.53 -2006.6,33.87 440.26,0 736.6,42.33 1083.73,254 220.13,127 143.93,135.47 296.33,143.93z"/>
   <path class="fil0" d="M19099.48 10705.57c16.93,101.6 321.73,897.46 389.47,931.33l93.13 177.8c67.73,169.33 59.27,491.07 59.27,660.4 0,448.73 -76.2,474.13 -76.2,609.6 8.46,237.07 -50.8,67.73 76.2,228.6 8.46,-262.47 211.66,-863.6 59.26,-1109.13 16.94,228.6 -8.46,372.53 59.27,541.86 186.27,-67.73 67.73,-16.93 169.33,-143.93 101.6,-110.07 -8.46,-42.33 118.54,-118.53 93.13,-42.34 -118.54,118.53 76.2,-25.4 0,0 93.13,-25.4 59.26,-211.67 0,321.73 -50.8,499.53 -50.8,821.27l93.14 -1227.67c110.06,-270.93 -186.27,-1303.87 -533.4,-1524l-50.8 143.93c-33.87,-67.73 -50.8,-169.33 0,0 -16.94,0 -33.87,8.47 -42.34,16.94l-355.6 127c-194.73,-33.87 152.4,-33.87 -50.8,-25.4 -101.6,8.46 33.87,67.73 -93.13,127z"/>
   <path class="fil0" d="M15611.21 14049.9l-33.86 194.73c220.13,50.8 -33.87,-101.6 93.13,67.74l84.67 127c33.86,-152.4 25.4,-76.2 127,-160.87 203.2,-160.87 93.13,118.53 169.33,-186.27 8.47,84.67 50.8,-33.86 50.8,203.2l143.93 -152.4 448.74 -389.46c0,0 -42.34,-93.14 237.06,-143.94 203.2,-33.86 211.67,-8.46 347.14,76.2l16.93 -76.2c0,0 -8.47,-16.93 -8.47,-25.4 -76.2,-67.73 -76.2,-8.46 -84.66,0 245.53,-8.46 16.93,8.47 160.86,-50.8 177.8,-76.2 211.67,-16.93 220.14,-118.53 0,0 -8.47,-8.47 -8.47,-8.47 211.67,76.2 -152.4,50.8 296.33,101.6l33.87 -177.8c8.47,-16.93 16.93,-33.86 16.93,-42.33 8.47,-8.47 33.87,-59.27 42.34,-76.2 -364.07,110.07 -84.67,16.93 -194.74,-50.8 -67.73,-220.13 -1371.6,-491.07 -2091.26,558.8 -101.6,152.4 -118.54,169.33 -67.74,330.2z"/>
   <path class="fil0" d="M18117.35 7462.83c0,313.27 76.2,499.54 33.86,821.27 -59.26,465.67 -203.2,846.67 -423.33,1253.07 -50.8,93.13 -93.13,143.93 -160.87,228.6l-135.46 254c0,127 -33.87,93.13 93.13,93.13 186.27,-270.93 93.13,160.87 482.6,-262.47l67.73 -84.66c8.47,-16.94 127,-364.07 321.74,-541.87 93.13,-84.67 118.53,-50.8 279.4,-50.8l8.46 -287.87c0,0 8.47,-8.46 8.47,-8.46 16.93,-59.27 16.93,-16.94 16.93,-33.87 211.67,-160.87 93.14,-1608.67 -50.8,-1718.73 8.47,-16.94 42.34,-143.94 42.34,25.4 0,59.26 0,50.8 -33.87,101.6l-194.73 194.73c-245.54,152.4 -270.94,-110.07 -186.27,228.6 33.87,135.47 67.73,541.87 -25.4,770.47 0,-169.34 8.47,-372.54 0,-541.87l-143.93 -440.27z"/>
   <path class="fil0" d="M13011.95 3585.1c508,0 677.33,0 1041.4,177.8 601.13,287.87 431.8,457.2 677.33,457.2 143.93,50.8 152.4,59.27 287.87,0 59.26,-203.2 143.93,-118.53 -42.34,-245.53 76.2,0 287.87,-127 440.27,152.4 143.93,-135.47 50.8,67.73 50.8,-152.4 33.87,-160.87 76.2,8.46 -42.33,-194.74l-533.4 -508c-245.54,-169.33 -584.2,-406.4 -948.27,-423.33l194.73 143.93c-254,0 -262.46,-50.8 -491.06,-50.8 110.06,-127 287.86,-76.2 143.93,110.07l-42.33 25.4c-93.14,33.87 -67.74,-59.27 -152.4,16.93 16.93,-8.46 0,-194.73 50.8,16.94 50.8,194.73 25.4,-16.94 0,127 -110.07,76.2 -118.54,67.73 -237.07,127 -33.87,16.93 76.2,67.73 -254,67.73 67.73,-76.2 194.73,-25.4 347.13,16.93l143.94 33.87c-84.67,0 -279.4,-8.47 -347.14,0 -177.8,8.47 -211.66,25.4 -287.86,101.6z"/>
   <path class="fil0" d="M16297.01 15717.83l194.74 93.14c-101.6,-245.54 169.33,-211.67 254,-237.07 8.46,0 25.4,-8.47 42.33,-8.47 16.93,-8.46 33.87,-16.93 42.33,-25.4 16.94,0 33.87,-8.46 50.8,-16.93 -76.2,-186.27 33.87,-93.13 -84.66,-152.4 59.26,0 829.73,84.67 990.6,-110.07 101.6,-127 -16.94,-84.66 -16.94,-84.66 -270.93,-93.14 -609.6,220.13 -1143,-76.2 -143.93,-84.67 -270.93,-203.2 -347.13,-347.14 -118.53,-237.06 -42.33,-347.13 -33.87,-609.6l-143.93 152.4c0,-237.06 -42.33,-118.53 -50.8,-203.2 -76.2,304.8 33.87,25.4 -169.33,186.27 -101.6,84.67 -93.14,8.47 -127,160.87l-84.67 -127c-127,-169.34 127,-16.94 -93.13,-67.74l33.86 -194.73c-110.06,67.73 -84.66,-50.8 -143.93,203.2 -50.8,211.67 67.73,660.4 160.87,863.6 93.13,194.73 262.46,406.4 440.26,533.4 177.8,127 110.07,93.13 228.6,67.73z"/>
   <path class="fil0" d="M3478.48 11298.23c186.27,448.74 1286.93,795.87 1676.4,829.74 914.4,84.66 753.53,-711.2 372.53,-821.27 -93.13,-25.4 -516.46,-59.27 -626.53,-59.27 135.47,101.6 -194.73,93.14 245.53,101.6l-313.26 8.47c-59.27,0 -33.87,-8.47 -84.67,0 -592.67,101.6 -381,-8.47 -584.2,-101.6 -220.13,93.13 59.27,76.2 -245.53,143.93 -110.07,-194.73 33.86,-152.4 -160.87,-220.13 -50.8,-16.93 -127,8.47 -279.4,-25.4 16.93,8.47 84.67,42.33 101.6,42.33 0,135.47 25.4,101.6 -101.6,101.6z"/>
   <path class="fil0" d="M10234.88 11992.5c59.27,152.4 67.73,313.27 110.07,491.07 245.53,-59.27 110.06,-67.74 203.2,-110.07l143.93 -33.87c8.47,0 25.4,-8.46 25.4,-8.46 8.47,0 25.4,0 33.87,0 0,-101.6 -8.47,-203.2 0,-304.8l59.26 -279.4 -33.86 -2531.54c-8.47,8.47 -8.47,33.87 -8.47,42.34 -8.47,8.46 -8.47,25.4 -16.93,42.33 0,16.93 0,25.4 -8.47,42.33l-25.4 152.4c-67.73,245.54 33.87,-16.93 -25.4,67.74l-127 93.13c-186.27,110.07 -135.47,25.4 -237.07,152.4l-93.13 2184.4z"/>
   <path class="fil0" d="M10234.88 11992.5l-25.4 2455.33c127,50.8 16.93,-16.93 84.67,101.6l42.33 110.07c8.47,8.47 8.47,25.4 16.93,33.87 8.47,-8.47 25.4,-42.34 25.4,-25.4 16.94,33.86 16.94,-76.2 118.54,-93.14 194.73,-25.4 -169.34,101.6 203.2,16.94 67.73,-186.27 0,-355.6 118.53,-508l-8.47 -2336.8 -59.26 279.4c-8.47,101.6 0,203.2 0,304.8 -8.47,0 -25.4,0 -33.87,0 0,0 -16.93,8.46 -25.4,8.46l-143.93 33.87c-93.14,42.33 42.33,50.8 -203.2,110.07 -42.34,-177.8 -50.8,-338.67 -110.07,-491.07z"/>
   <path class="fil0" d="M7356.21 9232.37c50.8,110.06 643.47,736.6 787.4,736.6l440.27 -143.94c-220.13,25.4 -76.2,76.2 -42.33,194.74 110.06,42.33 67.73,42.33 245.53,50.8l228.6 448.73c0,8.47 8.47,25.4 16.93,33.87l42.34 50.8c16.93,8.46 33.86,-8.47 33.86,0l169.34 0 -50.8 -237.07c84.66,-355.6 -643.47,-1286.93 -982.14,-1430.87 33.87,245.54 169.34,-25.4 -42.33,143.94l-152.4 -143.94c-42.33,203.2 -101.6,84.67 -186.27,93.14l-118.53 16.93c-228.6,50.8 -245.53,169.33 -431.8,84.67 33.87,-50.8 84.67,0 194.73,50.8 -93.13,118.53 110.07,228.6 -152.4,50.8z"/>
   <path class="fil0" d="M6721.21 5744.1c76.2,177.8 -8.46,50.8 127,169.33 76.2,67.74 101.6,67.74 177.8,118.54 414.87,321.73 364.07,762 762,821.26 245.54,25.4 524.94,-110.06 508,-465.66 -8.46,-160.87 -177.8,-465.67 -245.53,-541.87 -127,-160.87 -8.47,-67.73 -203.2,-152.4 8.47,220.13 110.07,8.47 -42.33,152.4 -84.67,-127 -220.14,-313.27 -355.6,-330.2l-194.74 -16.93c-101.6,0 -186.26,8.46 -270.93,16.93l-152.4 -16.93c-127,-25.4 0,-59.27 -127,0l-84.67 50.8c143.94,169.33 406.4,127 101.6,194.73z"/>
   <path class="fil0" d="M15221.75 5549.37c558.8,0 804.33,25.4 1244.6,177.8 508,177.8 702.73,457.2 863.6,457.2 228.6,0 67.73,33.86 220.13,-67.74l414.87 -270.93 -42.34 -152.4c-8.46,-211.67 -982.13,-719.67 -1227.66,-736.6l93.13 110.07c8.47,8.46 33.87,33.86 50.8,42.33 -406.4,-25.4 -33.87,-25.4 -203.2,50.8 -67.73,33.87 -33.87,0 -127,42.33 67.73,169.34 25.4,8.47 143.93,203.2l-50.8 59.27c-8.46,0 -42.33,33.87 -50.8,42.33 -160.86,76.2 -67.73,-110.06 -254,42.34 -160.86,-16.94 -330.2,-76.2 -482.6,-93.14 -50.8,-8.46 -262.46,-16.93 -304.8,-8.46l-287.86 101.6z"/>
   <path class="fil0" d="M14239.61 17241.83c84.67,203.2 16.94,67.74 127,211.67l228.6 414.87c8.47,33.86 25.4,93.13 33.87,110.06 59.27,152.4 -25.4,50.8 50.8,93.14 194.73,160.86 76.2,440.26 0,643.46 177.8,-143.93 143.93,211.67 143.93,-270.93 16.94,8.47 33.87,0 42.34,16.93 0,0 50.8,42.34 160.86,25.4 194.74,-33.86 59.27,59.27 143.94,-127 67.73,110.07 50.8,76.2 76.2,270.94 59.26,-67.74 118.53,118.53 67.73,-211.67 0,228.6 -50.8,270.93 -50.8,541.87 8.47,-16.94 25.4,-59.27 33.87,-50.8 8.46,8.46 16.93,-33.87 25.4,-50.8l93.13 -93.14c127,-8.46 16.93,-931.33 -8.47,-1024.46 -33.86,-135.47 -93.13,-287.87 -160.86,-431.8 -177.8,-347.14 -186.27,-304.8 -321.74,-364.07 -25.4,152.4 -237.06,389.47 -270.93,397.93 -194.73,59.27 -194.73,-118.53 -220.13,-160.86l-194.74 59.26z"/>
   <path class="fil0" d="M10209.48 14447.83l0 1354.67 42.33 931.33c279.4,-101.6 33.87,33.87 160.87,-76.2 25.4,-25.4 76.2,-110.06 84.67,-127 8.46,-127 8.46,-25.4 -33.87,-84.66 0,-8.47 -59.27,-42.34 -76.2,-50.8 16.93,8.46 -101.6,59.26 110.07,16.93 152.4,-25.4 169.33,-93.13 228.6,-186.27 101.6,-160.86 -76.2,25.4 76.2,-135.46l16.93 -2006.6c-118.53,152.4 -50.8,321.73 -118.53,508 -372.54,84.66 -8.47,-42.34 -203.2,-16.94 -101.6,16.94 -101.6,127 -118.54,93.14 0,-16.94 -16.93,16.93 -25.4,25.4 -8.46,-8.47 -8.46,-25.4 -16.93,-33.87l-42.33 -110.07c-67.74,-118.53 42.33,-50.8 -84.67,-101.6z"/>
   <path class="fil0" d="M12224.55 13313.3c42.33,237.07 -50.8,42.33 101.6,237.07 25.4,25.4 118.53,101.6 152.4,143.93 143.93,135.47 186.26,177.8 338.66,296.33 203.2,160.87 508,474.14 846.67,270.94 220.13,-127 423.33,-541.87 -42.33,-778.94 -194.74,-101.6 -228.6,-110.06 -381,-254 -211.67,-211.66 -143.94,-220.13 -381,-313.26 245.53,304.8 -177.8,-279.4 76.2,152.4 101.6,160.86 93.13,110.06 203.2,194.73l110.06 93.13 -186.26 42.34c-84.67,16.93 -59.27,16.93 -143.94,0 -177.8,-42.34 -203.2,-110.07 -355.6,33.86 -127,118.54 -296.33,-84.66 -296.33,-93.13 -8.47,-16.93 -25.4,-25.4 -42.33,-25.4z"/>
   <path class="fil0" d="M11775.81 12525.9c16.94,287.87 296.34,770.47 448.74,787.4 16.93,0 33.86,8.47 42.33,25.4 0,8.47 169.33,211.67 296.33,93.13 152.4,-143.93 177.8,-76.2 355.6,-33.86 84.67,16.93 59.27,16.93 143.94,0l186.26 -42.34 -110.06 -93.13c-110.07,-84.67 -101.6,-33.87 -203.2,-194.73 -254,-431.8 169.33,152.4 -76.2,-152.4 8.46,-76.2 8.46,-59.27 -33.87,-152.4l-203.2 -397.94c-118.53,-245.53 -8.47,-93.13 -152.4,-186.26 84.67,228.6 59.27,101.6 50.8,296.33 -127,-101.6 -101.6,-127 -152.4,-296.33 33.87,33.86 110.07,-25.4 8.47,101.6 -93.14,118.53 67.73,16.93 -152.4,93.13 -33.87,-50.8 -42.34,-50.8 -59.27,-135.47 -67.73,-262.46 0,-50.8 8.47,-59.26 -84.67,16.93 -25.4,-25.4 -59.27,50.8 -101.6,203.2 42.33,-169.34 -25.4,76.2l-16.93 67.73c-16.94,8.47 -33.87,8.47 -42.34,16.93l-84.66 0c-16.94,0 -50.8,-8.46 -67.74,-16.93 0,237.07 8.47,-50.8 59.27,211.67l-8.47 186.26c-50.8,-203.2 -8.46,-135.46 -152.4,-245.53z"/>
   <path class="fil0" d="M11631.88 12034.83c0,143.94 16.93,220.14 42.33,313.27 25.4,84.67 8.47,42.33 33.87,93.13 76.2,135.47 0,50.8 67.73,84.67 143.94,110.07 101.6,42.33 152.4,245.53l8.47 -186.26c-50.8,-262.47 -59.27,25.4 -59.27,-211.67 16.94,8.47 50.8,16.93 67.74,16.93l84.66 0c8.47,-8.46 25.4,-8.46 42.34,-16.93l16.93 -67.73c67.73,-245.54 -76.2,127 25.4,-76.2 33.87,-76.2 -25.4,-33.87 59.27,-50.8 -8.47,8.46 -76.2,-203.2 -8.47,59.26 16.93,84.67 25.4,84.67 59.27,135.47 220.13,-76.2 59.26,25.4 152.4,-93.13 101.6,-127 25.4,-67.74 -8.47,-101.6 50.8,169.33 25.4,194.73 152.4,296.33 8.47,-194.73 33.87,-67.73 -50.8,-296.33 76.2,-220.14 -33.87,-355.6 -50.8,-592.67 -16.93,-237.07 50.8,-381 50.8,-685.8 -101.6,127 -101.6,-177.8 -101.6,245.53l0 0c-8.47,127 -25.4,135.47 -143.93,279.4 -101.6,-25.4 -110.07,-50.8 -118.54,-59.26 -8.46,-8.47 -59.26,-42.34 -84.66,-50.8 -76.2,-33.87 -33.87,-25.4 -152.4,-25.4l25.4 93.13c0,8.47 -8.47,16.93 -8.47,25.4 -160.87,304.8 -143.93,-254 -160.87,228.6 -16.93,372.53 50.8,186.27 50.8,592.67 0,-16.94 -16.93,-33.87 -25.4,-50.8l-67.73 -93.14c-8.47,-42.33 -33.87,-33.86 -50.8,-50.8z"/>
   <path class="fil0" d="M16694.95 13753.57c355.6,-25.4 592.66,-110.07 872.06,110.06 194.74,160.87 279.4,508 626.54,414.87 262.46,-76.2 414.86,-389.47 228.6,-635 -143.94,-194.73 -406.4,-440.27 -651.94,-482.6 110.07,67.73 -169.33,160.87 194.74,50.8 -8.47,16.93 -33.87,67.73 -42.34,76.2 0,8.47 -8.46,25.4 -16.93,42.33l-33.87 177.8c-448.73,-50.8 -84.66,-25.4 -296.33,-101.6 0,0 8.47,8.47 8.47,8.47 -8.47,101.6 -42.34,42.33 -220.14,118.53 -143.93,59.27 84.67,42.34 -160.86,50.8 8.46,-8.46 8.46,-67.73 84.66,0 0,8.47 8.47,25.4 8.47,25.4l-16.93 76.2c-135.47,-84.66 -143.94,-110.06 -347.14,-76.2 -279.4,50.8 -237.06,143.94 -237.06,143.94z"/>
   <path class="fil0" d="M18701.55 10163.7c50.8,245.53 33.86,135.47 177.8,321.73 50.8,59.27 42.33,76.2 110.06,135.47 76.2,93.13 50.8,67.73 110.07,84.67 127,-59.27 -8.47,-118.54 93.13,-127 203.2,-8.47 -143.93,-8.47 50.8,25.4l355.6 -127c8.47,-8.47 25.4,-16.94 42.34,-16.94 -50.8,-169.33 -33.87,-67.73 0,0l50.8 -143.93c42.33,-194.73 -8.47,-135.47 -245.54,-448.73 -59.26,-67.74 -93.13,-110.07 -160.86,-186.27 -135.47,-143.93 -76.2,-118.53 -287.87,-152.4 0,76.2 93.13,177.8 -143.93,194.73 194.73,42.34 84.66,16.94 194.73,143.94 -270.93,59.26 -93.13,-42.34 -245.53,50.8 101.6,431.8 67.73,127 143.93,397.93l-245.53 -152.4z"/>
   <path class="fil0" d="M10150.21 17089.43c-8.46,194.74 -25.4,381 -50.8,541.87l110.07 194.73c0,-8.46 8.47,-16.93 16.93,-16.93l84.67 67.73c8.47,-8.46 25.4,33.87 33.87,42.34 93.13,-93.14 -33.87,25.4 118.53,-67.74 8.47,-8.46 50.8,-33.86 59.27,-42.33 194.73,-135.47 143.93,-110.07 186.26,-279.4 67.74,-254 84.67,-406.4 84.67,-685.8l-440.27 550.33c-296.33,389.47 -33.86,-203.2 -93.13,93.14 0,-42.34 0,-160.87 -8.47,-203.2 -42.33,-160.87 -8.46,-93.14 -101.6,-194.74z"/>
  </g>
 </g>
</svg>
