<?xml version="1.0" encoding="UTF-8"?>
<!DOCTYPE svg PUBLIC "-//W3C//DTD SVG 1.1//EN" "http://www.w3.org/Graphics/SVG/1.1/DTD/svg11.dtd">
<!-- Creator: CorelDRAW (Versão OEM) -->
<svg xmlns="http://www.w3.org/2000/svg" xml:space="preserve" width="210mm" height="297mm" version="1.1" style="shape-rendering:geometricPrecision; text-rendering:geometricPrecision; image-rendering:optimizeQuality; fill-rule:evenodd; clip-rule:evenodd"
viewBox="0 0 21000 29700"
 xmlns:xlink="http://www.w3.org/1999/xlink"
 xmlns:xodm="http://www.corel.com/coreldraw/odm/2003">
 <defs>
  <style type="text/css">
   <![CDATA[
    .fil0 {fill:#373435}
   ]]>
  </style>
 </defs>
 <g id="Camada_x0020_1">
  <metadata id="CorelCorpID_0Corel-Layer"/>
  <g id="_2014523358112">
   <g>
    <path class="fil0" d="M3330.76 1713.02c0.28,130.65 -32.7,98 98.25,98 88.88,-132.73 128.59,-92.02 113.21,-196.48 -127.44,151.63 -90.56,33.35 -90.45,317.46 223.72,-4.69 685.53,-56.99 419.79,75.99 158.99,190.82 -89.12,71.54 147.12,49.11 245.44,54.58 -24.82,-6.84 546.15,-239.97 218.09,-89.05 450.29,-157.63 693.49,-190.67 251.62,-34.18 611.57,-12.54 789.07,22.59 392.95,77.74 499.64,204.59 672.8,162.45 304.47,-66.95 40.43,-25.89 -98.48,-196.47l80.74 -52.67c124.56,-60.37 4.62,-22.74 132.51,1.13l150.09 14.02c85.1,-1.21 171.38,-13.15 269.61,-10.47l190.61 11.76c141.83,20.57 273.01,206.85 355.77,330.46 153.03,-141.07 58.22,71.5 49.12,-147.11 -3.55,-143.65 47.57,44.04 -24.42,-83.77 -106.39,-188.87 -494.43,-447.2 -678.98,-539.28 -287.73,-143.56 -668.12,-301.37 -1065.11,-310.21 226.49,-972.18 1633.97,-1520.26 2633.07,-913.92 492.29,298.77 686.86,590.95 936.49,1126.49 139.23,298.7 291.71,827.99 340.31,1182.59 26.68,194.58 -11.39,326.62 68.73,448 184.22,440.97 137.09,4958.55 128.09,5819.34 -10.26,981.5 20.4,1964.77 16.5,2947.11 -1.95,489.75 -21.86,968.13 -41.25,1456.7 -16.57,417.54 -124.2,978.47 -119.71,1284.17l52.97 -484.01c24.27,-155.65 42.36,-344.07 54.32,-537.47 54.1,-353.66 103.91,-872.71 61.33,-1290.82l-6.38 -1353.01 27.78 -2459.72 93.58 -2182.32c98.06,-125.59 47.4,-43.04 237.12,-148.86l124.14 -96.4c61.15,-87.06 -36.69,174.97 31.7,-66.07l24.57 -152.33c2.9,-14.53 6.23,-29.81 9.14,-43.19 2.92,-13.47 8.52,-31.97 11.09,-42.99 2.59,-11.05 6.06,-29.3 12.23,-42.8l34.5 2530.31 5.88 2339.23 -13.63 2008.11 -12.27 957.92c5.33,-1858.89 46.28,-3742.35 61.76,-5605.93 8.59,-1032.21 -83.1,-4861.85 238.04,-5508.85l70.06 -167.67c23.75,-79.26 36.51,-157.92 56.56,-238.37 183.3,-735.25 651.72,-1556.89 1425.53,-1816.84 285.45,-95.89 312.16,-38.53 363.72,-127.24 78.65,-72.88 115.48,-91.53 289.26,-105.1 70.88,-5.54 266.82,7.11 348.78,7.11l-141.23 -40.42c-151.53,-38.16 -283.79,-91 -349.95,-9.19 331.91,0 222.83,-55.43 255.93,-70.98 120.16,-56.47 124.72,-54.06 235.25,-125.49 25.85,-144.2 48.76,68.2 0.62,-129.74 -51.54,-211.87 -34.74,-24.13 -49.73,-17.62 87.16,-72.53 58.36,19.67 150.63,-13.57l46.44 -25.53c142.84,-190.81 -39.63,-242.18 -147.96,-108.26 227.75,0 237.26,45.28 491.18,49.13l-195.98 -147.12c-59.55,-102.5 111.46,27.05 -65.58,-42.59l-473.28 -57.42c-680.88,-1.25 -1154.17,76.43 -1672.2,443.36 -309.21,219.04 -484.84,389.08 -716,708.44 -89.65,123.83 -201.65,305.52 -263.24,424.41 -83.02,160.17 -109.02,386.54 -248.24,488.54 -34.58,-415.42 -625.61,-1179.45 -898.37,-1410.2 -698.6,-591.05 -1829.26,-843.55 -2750.96,-519.98 -497.37,174.6 -719.27,376.24 -1055.1,713.49 -233.08,234.05 -593.24,846.97 -600.38,1167.57 -508.59,0 -1858.63,556.18 -1866.75,884.13z"/>
    <path class="fil0" d="M14137.09 16645.31c-196.65,37.27 -131.17,-49.71 -196.47,128.34l-255.14 -355.65c-7.52,-4.99 -18.62,-13.3 -27.39,-17.06 -87.09,-37.26 -186.81,-11.14 -306.65,-1.71 18.94,-7.58 39.22,-28.18 48.96,-36.71l97.9 -110.41c-376.14,59.37 -1796.86,987.87 -2097.58,1242.23 -897.12,758.84 -1470.13,1818.88 -1622.27,3044 -54.45,438.5 -26.92,816.09 -64.67,1261.65 -31.62,373.31 -87.93,863.92 182.73,1099.56 278.4,242.37 753,105.08 869.17,-195.14 330.16,-853.27 -745.93,-3109.13 1742.8,-4937.32 522.57,-383.87 1124.67,-666.45 1454.45,-899.62 178.02,-125.87 98.31,-35.85 174.16,-222.16z"/>
    <path class="fil0" d="M10804.22 12157.03c-152.03,155.55 23.58,-28.92 -77.18,132.53 -59.86,95.94 -81.44,161.21 -227.75,190.07 -211.6,41.74 -98.41,-9.22 -109.8,-22.22 11.13,11.99 70.99,46.99 76.5,55.85 35.62,57.15 42.19,-40.85 26.69,83.51 -1.73,13.85 -58,104.02 -82.2,125.24 -127.9,112.08 118.51,-27.55 -161.28,79.54l-36.7 -934.48c42.58,418.11 -7.23,937.16 -61.33,1290.82 90.81,101.95 55.69,30.79 100.23,194.75 9.8,36.05 5.08,154.83 5.08,198.2 64.01,-298.28 -203.36,302.47 94.93,-93.25l445.37 -545.29c0,276.62 -21.36,432.1 -87.23,679.99 -46.8,176.13 4.5,142.91 -187.05,283.41 -12.19,8.95 -51.26,31.68 -63.5,39.47 -148.65,94.61 -25.17,-24.03 -113.52,70.22 -13.34,-10.36 -26.87,-51.11 -32.02,-39.25l-88.55 -72.84c-4.08,1.19 -14.32,11.41 -18.47,14.3l-109.59 -192.24 -52.97 484.01c-4.49,-305.7 103.14,-866.63 119.71,-1284.17 19.39,-488.57 39.3,-966.95 41.25,-1456.7 3.9,-982.34 -26.76,-1965.61 -16.5,-2947.11 9,-860.79 56.13,-5378.37 -128.09,-5819.34 0,667.96 49.12,1268.96 49.12,1988.09l0 6090.7c0,1965.66 189.33,5183.1 -1998.11,5815.27 -192.47,55.63 -122.81,9.19 -163.35,78.96 -119.79,101.64 180.47,97.98 -245.35,97.98l-343.58 50.32c10.24,13.25 29.54,13.19 35.14,37.52 18.41,79.88 24.02,-93.49 112.21,256 472.67,-17.16 276.71,-105.72 886.32,-209.06 568.08,-96.31 -8.58,151.05 514.41,-40.32 124.7,-45.63 14.81,-53.01 143.59,-10.61 168.63,55.51 111.76,5.15 -21.64,64l147.1 49.12c328.6,73.07 905.57,-818.52 1029.92,-1033.3 616.61,-1064.99 685.76,-2246.47 687.56,-3536.65 0.46,-338.41 51.31,-583.11 50.82,-980.67l-0.03 -7416.92c-0.39,-648.58 147.37,-1703.82 147.37,-1972.31 -321.14,647 -229.45,4476.64 -238.04,5508.85 -15.48,1863.58 -56.43,3747.04 -61.76,5605.93l12.27 -957.92z"/>
    <path class="fil0" d="M14726.51 288.83c55.15,307.61 171.76,272.27 245.6,589.18 -1794.61,0 -3026.68,2445.41 -2041.22,2686.07 528.07,128.96 517.79,-552.37 538.48,-652.27 134.39,-648.88 862.39,-1058.99 1537.46,-1216.8l211.11 -80.21 292.93 -103.07c38.18,-3.99 255.93,5.36 300.12,10.39 155.91,17.77 327.88,76.73 487.32,92.91 181.34,-156.36 91.82,31.02 251.79,-45.42 10.45,-4.99 44.68,-36.73 52.1,-42.64l50.03 -59.54c-122.52,-195.04 -79.09,-26.62 -143.96,-196.47 94.4,-49.58 62.92,-11.96 126.98,-42.47 165.32,-78.69 -205.13,-81.2 203.12,-56.01 -18.94,-7.58 -39.22,-28.18 -48.96,-36.7l-97.91 -110.42c-65.35,-112.46 -628.29,-180.78 -786.14,-147.35l-239.45 -641.06c-121.13,-220.08 10.37,-100.58 -202.38,-193.95 6.35,213.77 95.38,10.68 -49.11,147.1 -146.98,-275.53 -359.89,-152.81 -442.56,-147.1 191.16,122.04 101.46,39.11 49.12,245.34 -137.38,57.02 -150.95,48.53 -294.47,0.49z"/>
    <path class="fil0" d="M7653.19 14778.56c-276.29,112.49 -1523.06,1419.57 -3350.55,358.19 -137.36,-79.78 -105.77,-80.7 -283.73,-112.6l128.4 147.12 -250.05 -70.83c-12.05,-2.18 -122.23,-4.61 -133.73,-6.49 -206.04,-33.73 -228.12,-239.03 -725.24,-161.76l-247.59 -104.27c79.44,443.1 1225.72,1206.04 1761.32,1382.03 865.47,284.4 271.2,108.48 611.67,311.89 125.81,75.15 -59.98,21.7 82.94,25.24 518.38,-76.96 147.74,-300.94 785.89,-49.61l-48.87 -237.63c319.78,4.98 618.88,-136.14 883.9,-154.83 183.86,99.68 386.62,-70.27 540.69,-147.21 180.46,-90.11 290.09,-155.22 462.5,-274.28 265.41,-183.26 610.04,-495.68 666.84,-855.6l-147.12 146.86c35.13,-272.3 17.92,-131.56 98.84,-330.77 32.57,-80.16 45.21,-73.9 48.53,-200.18 22.41,127.33 28.8,139.2 -118.98,195.37 -7.18,2.73 -22.37,5.52 -29.78,7.6l-368.41 128.67c-6.23,2.55 -20.14,8.55 -26.44,10.68 -6.24,2.12 -20.62,6.95 -26.92,8.56 -6.18,1.6 -20.91,5.06 -27.08,6.1 -6.07,1.03 -21.13,3.01 -27.09,3.51 -203.41,17 -24.48,-173.65 -210.82,121.35 -119.79,-92.47 -225.12,109.89 -49.12,-147.11z"/>
    <path class="fil0" d="M18263.05 11684.34c0,318.35 82.55,504.07 42.33,876.98 -25.83,239.54 -76.46,521.32 -146.17,738.08 -179.7,558.7 -299.9,715.76 -618.3,1149.97 -640.15,873.01 -1556.81,1023.33 -2372.33,1213.32l0 -147.11c-14.68,12.28 -39.39,8.9 -46.95,33.03l-100.16 65.21c178.01,176.94 -214.4,172.97 343.35,49.13 -135.31,168.05 207.96,146.86 -294.72,146.86l37.02 138.04c-9.59,2.78 -25.66,-3.25 -28.92,7.93l-409.32 193.77c-118.39,88.92 -16.43,52.2 -123.98,102.81l1212.11 -61.91c-15.66,19.61 -39.93,6.37 -50.67,27.01l-187.46 49.62c-12.64,3.63 -27,7.98 -37.89,11.25 -319.09,95.92 -781.93,-100.15 -1048.94,121.15 1322.56,0 1949.76,-60.64 2927.59,-706.93 225.87,-149.29 498.92,-363.67 669.77,-558.19 594.14,-676.4 1024.88,-1597.78 1020.68,-2564.98 -1.18,-273.45 90.16,-942.53 -148.25,-1130.88 0.44,300.67 49.52,526.12 49.19,884.13 -0.04,37.34 -22.15,953.99 -80.87,833.84 -3.34,-6.85 -10.52,33.8 -19.57,50.03l10.13 -514.48c4.38,30.98 116.5,188.02 -295.87,134.82 -11.76,-1.52 -10.04,124.14 -60.93,-14.72 -4.08,-11.11 -19.84,-5.47 -54.38,-7.66l9.74 -285.24c0,244.84 -8.82,430.44 -167.09,589.07 84.52,-234.66 217.66,-1133.06 -29.14,-1423.95z"/>
    <path class="fil0" d="M17771.86 11241.77c0.18,0.14 120.45,-42.81 15.4,87.32 -157.4,194.99 -930.19,109.17 -993.7,109.17 121.29,54.58 10.25,-31.66 84.75,147.59 -13.91,10.36 -34.05,17.08 -47.11,22.1 -12.38,4.76 -30.76,14.27 -45.38,19.35 -13.2,4.61 -28.33,10.36 -42.12,14.53 -83.36,25.22 -354.75,-12.83 -248.95,238.09l-196.44 -97.35c32.68,52.01 -9.94,156.43 410.71,227.79 429.54,72.87 1282.19,31.33 1554.03,-326.02 246.8,290.89 113.66,1189.29 29.14,1423.95 158.27,-158.63 167.09,-344.23 167.09,-589.07l-9.74 285.24c34.54,2.19 50.3,-3.45 54.38,7.66 50.89,138.86 49.17,13.2 60.93,14.72 412.37,53.2 300.25,-103.84 295.87,-134.82l-10.13 514.48c9.05,-16.23 16.23,-56.88 19.57,-50.03 58.72,120.15 80.83,-796.5 80.87,-833.84 0.33,-358.01 -48.75,-583.46 -49.19,-884.13 187.66,-348.87 1422.77,-967.69 1425,-2946.55 0.42,-373.54 53.62,-488.99 -98.8,-589.99l-98.24 1227.72c0,-322.04 49.12,-493.08 49.12,-814.96 40.7,180.78 -55.36,207.49 -55.79,207.81 -191.28,143.14 18.53,-17.69 -71.82,30.46 -130.7,69.63 -18.07,1.31 -119.42,118.7 -104.63,121.2 11.74,74.78 -172.8,139.77 -68.76,-172.66 -45.41,-309.93 -55.95,-538.8 146.07,241.68 -50.8,840.11 -65.02,1102.62 -122.96,-160.75 -68.13,12.82 -71.82,-225.51 -2.04,-131.86 74.34,-164.56 73.51,-609.07 -0.33,-165.22 6.76,-491.46 -55.81,-660.72l-92.99 -174.24c0,847.17 239.94,1211.93 -310.65,2243.26 -238.62,447 -541.21,749.47 -956.16,1008.56 -229.39,143.24 -330.15,119.33 -452.34,284.21z"/>
    <path class="fil0" d="M2250.16 3579.54c-211.92,167.41 -146.09,464.48 -147.78,835.63 -5.55,1212.19 433.9,510.81 -380.66,1386.31 -88.35,94.97 -138.13,175.21 -216.52,275.64 -184.69,236.63 -164.47,188.37 -139.18,302.17 28.27,128.5 65.03,92.94 65.44,93.06 31.99,10.03 4.82,-48.12 193.66,78.5 6.13,4.11 18.62,12.8 24.63,16.71l220.8 141.88c122.75,94.47 -200.72,-40.25 85.14,63.04 166.65,-53.29 275.78,-461.65 540.31,-638.79 75.01,156.34 73.49,199.34 174.04,366.26 144.24,239.4 427.27,602.63 640.49,787.5 202.92,175.95 46.51,71.46 167.84,74.45 130.64,-0.26 97.99,32.71 97.99,-98.23 -11.71,-5.65 -83.21,-39.09 -97.99,-46.08 153.19,37.63 228.98,12.42 279.49,29.81 191.1,65.83 47.72,22.97 162.57,217.65 301.43,-67.7 19.06,-51.65 245.6,-140.39 198.8,86.93 -9.01,202.39 577.79,102.64 56.49,-9.61 32.4,-5.19 89.48,-1.85l314.85 -14.91c-442.2,-6.09 -112.89,4.13 -245.1,-98 -28.67,-57.68 125.07,14.62 -185.38,-105.95 -558.87,-217.1 -1039.75,-647.52 -1348.42,-1160.25 -596.12,-990.26 -382.07,-1635.04 -382.07,-2417.45 -265.17,312.54 -163.89,1199.98 -49.36,1423.95 -184.83,-148.8 -45.28,12.39 -146.99,-174.23 -76.48,-140.33 -57.43,-647.21 -35.91,-811.48 32.62,-249.07 26.99,48.25 36.04,-205.13 126.2,200.34 -14.05,145.39 -140.62,198.88 -39.79,-243.14 -76.58,-98.88 -13.03,-270.35 0.13,-0.35 71.51,-2.83 7.67,-122.09 -110.06,-205.6 184.61,162.45 -111.91,-124.58 -159.9,-154.77 -153.68,14.12 -135.56,-180.54 -55.68,243.12 -76.34,344.05 -120.13,650.19 -21.72,151.82 -26.32,183.18 -26.08,349.66 0.11,71.58 4.9,345.29 -64.88,394.37l63.74 -1178z"/>
    <path class="fil0" d="M727.73 8982.82c8.36,523.85 242.42,1066.4 475.07,1489.51 61.6,112.04 142.66,289.8 261.7,327.88 216.48,-0.46 93.74,-158.32 -0.23,-198.08l406.32 21.56c61.98,8.55 102.56,-0.52 156,88.48 69.12,115.08 67.14,141.77 76.7,284.02 400.13,-20.83 321.49,-85.1 570.44,204.65 242.33,282.03 411.47,-84.67 411.93,188.3l147.11 -146.86c232.94,-5.77 186.25,-278.65 720.44,-507.79 374.84,-160.77 689.37,-131 1195.18,-131 80.13,-119.66 192.7,-198.05 183.45,-387.38 -49.94,-1022.74 -2483.74,-133.83 -2688.49,632.97 -233.17,-62.27 -485.16,-406.2 -619.67,-608.3 -211.09,-317.14 -177.01,-313.62 -301.47,-628.17 -32.26,-81.5 0.04,-31.41 -46.04,-107.26 -85.01,-139.92 23.75,-28.36 -113.19,-129.82 24.24,388.89 15.28,125.86 -49.1,245.34 -60.31,-303.53 -199.85,-542.65 -98.73,-638.54 -9.08,176.91 -2.41,164.28 -49.13,294.7 -230.41,-81.53 -113.97,56.5 -246.4,-171.84 -72.02,-124.21 -47.81,-461.57 -47.81,-613.8 8.02,4.08 73.12,-54.74 12.98,53.51 -79.13,142.42 -189.71,43.39 -210.5,44.72l0.55 638.31 -147.11 -245.11z"/>
    <path class="fil0" d="M17427.79 6084.57c-276.7,112.66 -194.76,219.74 -597.32,483.06 -901.52,589.7 -1262.53,215.91 -1361.16,708.81 -69.7,348.29 212.76,546.77 529.23,528.53 1034.04,-59.6 1963.17,-921.52 2411.86,-1769.51 183.37,122.79 156.86,193.3 294.72,196.71l245.34 147.37c-79.28,-273 -49.37,34.78 -147.35,-393.2 154.66,-94.34 -25.45,8.2 243.8,-55.33 -110.67,-128.05 -2.38,-103.59 -194.68,-141.14 239.89,-19.02 142.46,-122.86 147.84,-196.47 -2.15,-86.81 41.66,-21.65 -38.64,-111.32 -86.84,-96.98 -36.63,-52.74 -158.07,-85.15 0,-203.26 37.88,-250.4 49.11,-441.84l-84.78 98c-10.74,13.48 -25.04,57.95 -33.63,49.15 -8.18,-8.38 -21.15,31.53 -28.69,48.84l0 -245.11c0.8,16.35 7.24,-20.32 -12.19,32.36 -0.73,1.99 -5.87,12.98 -6.65,15.33l-9.25 285.83c-158.38,1.81 -190.83,-31.12 -279.23,49.07 -194.29,176.2 -312.83,526.15 -322.7,543.51l-71.32 84.74c-387.23,421.01 -294.73,-7.95 -478,265.76 -130.95,0 -97.97,32.66 -98.24,-98z"/>
    <path class="fil0" d="M7358.73 5298.93c256.99,176.01 54.64,70.68 147.11,-49.12 -109.1,-49.32 -155.77,-102.41 -196.22,-49.61 192.38,84.53 210.99,-36.14 439.39,-88.04l118.46 -18.03c80.69,-4.94 138.96,112.75 178.92,-90.4l157.53 138.06c211.2,-161.4 73.5,108.91 39.19,-137.82 -3.22,-130.16 -63.49,-144.99 -234.54,-256.42 -146.97,-95.73 -205.08,-133.52 -371.43,-218.47 -337.21,-172.16 -419.6,-241.04 -827.89,-350.95 -1774.11,-477.61 -2768.89,179.44 -2143.07,718.9 383.31,330.41 918.57,-387.4 2283.8,270.31 77.38,37.28 121.97,73.16 194.63,103.41 216.65,90.22 59.25,65.86 214.12,28.18z"/>
    <path class="fil0" d="M7260.5 13108.77c358.36,167.99 59.94,56.88 196.22,-49.12 -144.36,105.75 85.57,-39.29 -48.62,-147.84 107.11,153.12 -70.29,19.58 118.61,103.91 239.83,107.09 238.44,-49.2 568.55,-54.79 -4.21,-101.93 13.31,2.04 -25.7,-92.7l-72.04 -152.65c-6.23,-98.23 31.34,-27.92 -74.81,-120.06 -61.89,-53.72 -112.9,-74.9 -185.73,-110.36 -135.36,-65.9 -306.62,-118.03 -435.88,-154.01 -1421.29,-395.49 -3241.25,1048.14 -2342.23,1606.88 339.34,210.92 530.81,1.61 696.26,-273.65 135.11,-224.75 366.1,-405.58 641.31,-488.45 695.52,-209.47 669.63,31.53 964.06,-67.16z"/>
    <path class="fil0" d="M12122.98 5789.87c0.36,172.36 188.36,97.99 392.95,97.99 90.62,-140.23 46.53,-126.18 204.87,-224.92 9.2,-5.73 22.7,-11.73 31.99,-17.62l598.16 -543.36c226.97,44.46 437.34,21.62 737.02,0.5 266.77,89.42 331.77,-181.28 1329.71,-193.23 212.74,-2.53 291.63,-27.08 375.13,-165.51 181.47,-300.91 30.98,-590.67 -221.19,-683.22 -254.71,-93.48 -714.62,5.66 -958.39,44.29 -894.16,141.72 -1778.44,680.51 -2323.21,1361.15 -7.92,9.89 -107.26,138.18 -108.53,140.14 -124.59,193.24 -65.65,67.5 -58.51,183.79z"/>
    <path class="fil0" d="M5246.63 16547.08c185.8,456.38 1350.58,880.58 1773.7,927.57 413.01,45.87 920.18,26.07 1260.32,-55.02l701.33 -277.42c220.32,-120.32 101.06,9.88 194.13,-202.19l-147.1 -49.12c133.4,-58.85 190.27,-8.49 21.64,-64 -128.78,-42.4 -18.89,-35.02 -143.59,10.61 -522.99,191.37 53.67,-55.99 -514.41,40.32 -609.61,103.34 -413.65,191.9 -886.32,209.06 -88.19,-349.49 -93.8,-176.12 -112.21,-256 -5.6,-24.33 -24.9,-24.27 -35.14,-37.52l343.58 -50.32c425.82,0 125.56,3.66 245.35,-97.98 -476.46,0 -1590.75,32.21 -1866.26,-343.84l588.66 -46.21c272.72,-86.04 118,-30.45 197.24,-150.01 -265.02,18.69 -564.12,159.81 -883.9,154.83l48.87 237.63c-638.15,-251.33 -267.51,-27.35 -785.89,49.61z"/>
    <path class="fil0" d="M8144.63 6035.7c77.01,487.95 566.74,734.68 442.89,1866.79 -27.92,255.17 -159.35,508 -99.3,687.13 -162.85,356.65 -54.69,61.35 49.1,196.24 28.97,-145.74 65.99,-224.29 98.25,-358.14 -46.9,224.57 113.74,78.31 299.38,129.92 332.59,92.45 85.56,196.81 290.29,277.83 183.79,-91.35 269.68,-856.87 292.93,-1133.06 21.83,-259.47 -18.34,-447.27 -60.26,-671.66 -55.41,-296.6 -68.49,-480.86 -232.42,-602.34l49.1 245.34 -162.73 -5.3c-3.64,-11.11 -22.35,5.44 -33.74,5.3l-44.66 -58.79c-5.7,-8.43 -15.64,-21.39 -21.75,-30.91l-228.29 -450.59c-175.98,-5.74 -136.2,-8.06 -245.59,-49.12 -30.76,-118.48 -170.96,-164.23 48.62,-196.48l-441.82 147.84z"/>
    <path class="fil0" d="M727.73 8982.82l147.11 245.11 -0.55 -638.31c20.79,-1.33 131.37,97.7 210.5,-44.72 60.14,-108.25 -4.96,-49.43 -12.98,-53.51 0,152.23 -24.21,489.59 47.81,613.8 132.43,228.34 15.99,90.31 246.4,171.84 46.72,-130.42 40.05,-117.79 49.13,-294.7 -101.12,95.89 38.42,335.01 98.73,638.54 64.38,-119.48 73.34,143.55 49.1,-245.34 96.35,-258.6 -161.42,-651.64 -15.1,-1390.19 128.29,-647.58 367,-954.3 407.81,-1212.86 -285.86,-103.29 37.61,31.43 -85.14,-63.04l-220.8 -141.88c-6.01,-3.91 -18.5,-12.6 -24.63,-16.71 -188.84,-126.62 -161.67,-68.47 -193.66,-78.5 -0.41,-0.12 -37.17,35.44 -65.44,-93.06 -113.86,71.55 -55.73,21.18 -135.26,107.75 -81.75,88.99 -20.13,11.1 -80.85,120.77 -294.54,532.01 -663.84,1831.72 -422.18,2375.01z"/>
    <path class="fil0" d="M12122.98 5789.87c-264.51,166.25 -424.98,689.5 -502.46,1019.96 -60.39,257.52 -159.93,1135.77 11.52,1288.86 13.64,18.01 38.03,13.7 46.95,48.84l73.84 98.28c8.38,12.58 19.77,31.55 26.33,48.86 0,-405.94 -68.1,-221.83 -54.4,-589.75 18.13,-486.58 -2.19,69.92 161.39,-231.42 2.96,-5.45 9.64,-20.14 11.48,-25.52l-26.31 -94.52c119.1,2.04 74.56,-7.61 146.74,24.34 30.77,13.62 79.29,47.9 86.7,51.99 13.08,7.2 18.06,32.49 116.7,59.93 124.57,-145.86 138.82,-148.95 147.12,-275.66l0.48 0.24c0,-428.6 -3.35,-123.05 98,-245.34 64.84,-57.9 66.2,-132.53 104.8,-236.46 183.12,-493.03 751.69,-1169.85 1237.85,-1415.58 281.23,-142.14 198.52,-87.59 278.26,-214.46 -299.68,21.12 -510.05,43.96 -737.02,-0.5l-598.16 543.36c-9.29,5.89 -22.79,11.89 -31.99,17.62 -158.34,98.74 -114.25,84.69 -204.87,224.92 -204.59,0 -392.59,74.37 -392.95,-97.99z"/>
    <path class="fil0" d="M1464.5 10800.21c66.46,163.24 5.8,25.66 63.01,123.51l266.84 332.31c96.25,92.02 308,263.57 406.94,329.82l-163.62 870.18c-26.41,185.82 -22.09,652.56 65.37,849.22l147.12 146.86c0,-107.27 -56.25,-1009.77 -83.21,-1052.76 64.37,527.19 -24.34,726.8 547.69,933.91l3.05 -396.15c-51.24,118.41 44.3,418.37 73.27,564.12 184.51,-324.55 -267.88,-912.47 97.99,-1473.06 46.22,-22.98 29.32,6.94 80.53,-114.34 32.3,-76.51 43.27,-148.01 72.64,-223.24 89.87,-230.2 144.5,-155.83 190.65,-448.31l-147.11 146.86c-0.46,-272.97 -169.6,93.73 -411.93,-188.3 -248.95,-289.75 -170.31,-225.48 -570.44,-204.65 -9.56,-142.25 -7.58,-168.94 -76.7,-284.02 -53.44,-89 -94.02,-79.93 -156,-88.48l-406.32 -21.56c93.97,39.76 216.71,197.62 0.23,198.08z"/>
    <path class="fil0" d="M13498.3 16252.11l-97.9 110.41c-9.74,8.53 -30.02,29.13 -48.96,36.71 119.84,-9.43 219.56,-35.55 306.65,1.71 8.77,3.76 19.87,12.07 27.39,17.06l255.14 355.65c65.3,-178.05 -0.18,-91.07 196.47,-128.34 106.46,6.54 -12.75,95.99 188,-57.91 0.04,-0.03 63.8,-67.11 68.63,-74.54 67.02,-103.11 35.96,-17.58 38.33,-113.38 267.01,-221.3 729.85,-25.23 1048.94,-121.15 10.89,-3.27 25.25,-7.62 37.89,-11.25l187.46 -49.62c10.74,-20.64 35.01,-7.4 50.67,-27.01l-1212.11 61.91c107.55,-50.61 5.59,-13.89 123.98,-102.81l409.32 -193.77c3.26,-11.18 19.33,-5.15 28.92,-7.93l-37.02 -138.04c502.68,0 159.41,21.19 294.72,-146.86 -557.75,123.84 -165.34,127.81 -343.35,-49.13l100.16 -65.21c7.56,-24.13 32.27,-20.75 46.95,-33.03 75.56,-24.17 5.78,43.5 82.08,-67.83 33.37,-48.71 53.07,-111.38 73.37,-167.14 50.59,-138.97 86.8,-243.35 90.14,-452.69l-88.13 97.99c-10.82,13.37 -24.03,57.88 -32.64,49.15 -8.1,-8.21 -19.78,31.55 -26.34,48.84 0,-270.72 49.12,-309.79 49.12,-540.06 51.02,333.04 -12.4,145.42 -70.92,209.43 -21.84,-189.85 -6.01,-156.49 -76.68,-268.13 -85.6,184.43 49.75,89.64 -143.3,126.36 -111.16,21.15 -161.79,-23.69 -161.83,-23.75 -7.13,-15.7 -26.02,-11.07 -38.69,-17.31 -2.04,485.98 30.5,124.88 -147.12,267.87 74.39,-198.56 192.63,-476.94 -0.25,-638.04 0,616.96 -112.1,917.69 -371.39,1298.38 -123.96,182.01 -247.88,285.84 -401.22,433.81 -229.95,221.91 -397.52,238.43 -406.48,379.65z"/>
    <path class="fil0" d="M3330.76 1713.02c-342.61,0 -848.21,983.02 -981.96,1277.25 -79.14,174.08 -183.48,369.62 -98.64,589.27l-63.74 1178c69.78,-49.08 64.99,-322.79 64.88,-394.37 -0.24,-166.48 4.36,-197.84 26.08,-349.66 43.79,-306.14 64.45,-407.07 120.13,-650.19 -18.12,194.66 -24.34,25.77 135.56,180.54 296.52,287.03 1.85,-81.02 111.91,124.58 63.84,119.26 -7.54,121.74 -7.67,122.09 -63.55,171.47 -26.76,27.21 13.03,270.35 126.57,-53.49 266.82,1.46 140.62,-198.88 -9.05,253.38 -3.42,-43.94 -36.04,205.13 -21.52,164.27 -40.57,671.15 35.91,811.48 101.71,186.62 -37.84,25.43 146.99,174.23 -114.53,-223.97 -215.81,-1111.41 49.36,-1423.95 66.06,-38.38 85.7,-182.11 181.82,-407.76 319.95,-750.99 701.94,-801.12 849.68,-1164.03 -236.24,22.43 11.87,141.71 -147.12,-49.11 265.74,-132.98 -196.07,-80.68 -419.79,-75.99 -0.11,-284.11 -36.99,-165.83 90.45,-317.46 15.38,104.46 -24.33,63.75 -113.21,196.48 -130.95,0 -97.97,32.65 -98.25,-98z"/>
    <path class="fil0" d="M8488.22 8589.62c-214.8,134.99 -310.3,572.46 -756.49,913.31 -163.78,125.1 -325.09,187.93 -394.66,397.79 -94.33,284.55 241.17,872.8 837.48,388.86 169.78,-137.78 272.36,-259.95 424.65,-410.37 236.36,-233.46 565.9,-662.66 626.04,-1043.74 -204.73,-81.02 42.3,-185.38 -290.29,-277.83 -185.64,-51.61 -346.28,94.65 -299.38,-129.92 -32.26,133.85 -69.28,212.4 -98.25,358.14 -103.79,-134.89 -211.95,160.41 -49.1,-196.24z"/>
    <path class="fil0" d="M2103.04 13305.25c24.8,422.7 296.31,1090.53 548.24,1419.82 129.14,168.82 72.86,98.63 139.42,102.85l247.59 104.27c497.12,-77.27 519.2,128.03 725.24,161.76 11.5,1.88 121.68,4.31 133.73,6.49l250.05 70.83 -128.4 -147.12c-2.1,-84.84 23.81,-43.35 -61.41,-133.46 -235.04,-248.55 -431.67,-251.14 -823.82,-1044.52 -368.71,-745.93 -244.73,-1168.41 -244.73,-1818 -365.87,560.59 86.52,1148.51 -97.99,1473.06 -28.97,-145.75 -124.51,-445.71 -73.27,-564.12l-3.05 396.15c-572.03,-207.11 -483.32,-406.72 -547.69,-933.91 26.96,42.99 83.21,945.49 83.21,1052.76l-147.12 -146.86z"/>
    <path class="fil0" d="M7260.5 13108.77c160.18,216.18 983.53,472.88 472.26,1458.03l-79.57 211.76c-176,257 -70.67,54.64 49.12,147.11 186.34,-295 7.41,-104.35 210.82,-121.35 5.96,-0.5 21.02,-2.48 27.09,-3.51 6.17,-1.04 20.9,-4.5 27.08,-6.1 6.3,-1.61 20.68,-6.44 26.92,-8.56 6.3,-2.13 20.21,-8.13 26.44,-10.68l368.41 -128.67c7.41,-2.08 22.6,-4.87 29.78,-7.6 147.78,-56.17 141.39,-68.04 118.98,-195.37 -3.32,126.28 -15.96,120.02 -48.53,200.18 -80.92,199.21 -63.71,58.47 -98.84,330.77l147.12 -146.86c152.21,-48.68 190.61,-359.22 219.85,-517.83 86.07,-466.75 -234.4,-1500.29 -759.91,-1594.51l72.04 152.65c39.01,94.74 21.49,-9.23 25.7,92.7 -330.11,5.59 -328.72,161.88 -568.55,54.79 -188.9,-84.33 -11.5,49.21 -118.61,-103.91 134.19,108.55 -95.74,253.59 48.62,147.84 -136.28,106 162.14,217.11 -196.22,49.12z"/>
    <path class="fil0" d="M17329.79 2253.57c83.28,204.54 57.77,124.41 233.76,307.29 186.74,194.05 303.16,390.61 398.78,632.2 31.65,79.97 34.02,96.67 67.63,181.04l85.74 156.56 146.47 436.36c9.65,170.77 0.63,371.9 0.63,545.52 94.09,-226.49 59.37,-640.22 25.81,-769.88 -88.54,-342.18 -57.46,-79.63 182.3,-229.98l198.95 -194.71c27.86,-53.58 27.01,-39.64 28.74,-101.53 4.83,-174.79 -29.63,-41.55 -42.36,-30.1 143.29,114.74 262.49,1563.97 49.13,1719.63l0 245.11c7.54,-17.31 20.51,-57.22 28.69,-48.84 8.59,8.8 22.89,-35.67 33.63,-49.15l84.78 -98c43.23,-25.11 31.18,18.5 70.87,-124 255.98,-919.27 -152.28,-2348.62 -789.82,-2935.86 -139.46,-128.48 -44.76,-64.16 -214.06,-133.08l48.64 147.11 -415.76 273.41c-155.28,98.82 2.71,70.62 -222.55,70.9z"/>
    <path class="fil0" d="M14235.32 13305.25l199.43 -57.97c20.81,40.97 26.06,219.27 217.84,162.32 36.2,-10.75 245.95,-247.68 270.65,-399.31 -2.22,-89.12 16.24,-37.94 -59.09,-135.79 -580.25,-753.56 -2871.48,-1257.69 -2004.13,37.55 442.47,0 734.61,40.11 1079.22,247.95 223.17,134.59 143.82,141.49 296.08,145.25z"/>
    <path class="fil0" d="M19098.06 6772.48c15.16,96.03 326.1,900.04 392.95,933.26l92.99 174.24c62.57,169.26 55.48,495.5 55.81,660.72 0.83,444.51 -75.55,477.21 -73.51,609.07 3.69,238.33 -51.14,64.76 71.82,225.51 14.22,-262.51 211.09,-860.94 65.02,-1102.62 10.54,228.87 -12.81,366.14 55.95,538.8 184.54,-64.99 68.17,-18.57 172.8,-139.77 101.35,-117.39 -11.28,-49.07 119.42,-118.7 90.35,-48.15 -119.46,112.68 71.82,-30.46 0.43,-0.32 96.49,-27.03 55.79,-207.81 0,321.88 -49.12,492.92 -49.12,814.96l98.24 -1227.72c103.94,-269.11 -189.27,-1302.06 -540.31,-1522.67l-49.12 147.11c-31.44,-70.98 -46.27,-173.8 -0.49,0 -12.53,2.31 -27.83,10.33 -35.56,14l-362.47 124.94c-191.85,-33.37 155.92,-25.66 -45.46,-17.68 -102.26,4.07 27.4,68.18 -96.57,124.82z"/>
    <path class="fil0" d="M15610.4 10112.3l-32.63 198.24c217.82,53.64 -33.83,-98.08 89.48,66.83l90.51 127.64c29.41,-152.2 18.64,-72.96 125.34,-157.6 201.87,-160.14 95.29,111.3 169.36,-186.24 3.47,78 52.69,-38.32 49.61,196.47l147.12 -146.86 442.31 -393.2c0.05,-0.05 -36.73,-93.33 238.62,-142.87 201.86,-36.32 211.53,-6.21 350.55,79.31l12.82 -77.26c-1.71,-2.87 -4.81,-22.08 -7.49,-24.73 -72.73,-71.69 -74.56,-7.68 -80.54,-6.19 245.95,-3.23 17.78,14.59 155.55,-45 178.09,-77.01 210.98,-17.6 221.84,-116.18 0.13,-1.09 -3.76,-13.66 -7.46,-11.15 208.99,74.19 -154.34,51.58 294.46,98.24l39.34 -180.04c4.54,-11.53 11.82,-25.98 16.56,-36.65 5.78,-12.99 34.17,-63.36 42.35,-77.52 -363.97,113.12 -87,18.19 -195.99,-49.38 -69.89,-218.52 -1370.39,-494.05 -2094.48,559.96 -102.98,149.88 -119.27,168.93 -67.23,324.18z"/>
    <path class="fil0" d="M18115.7 3530.66c0,309.83 81.21,496.4 37.19,822.19 -62.66,463.58 -202.49,844.53 -421.91,1248.78 -51.5,94.87 -100.08,148.41 -164.18,230.55l-139.01 252.39c0.27,130.66 -32.71,98 98.24,98 183.27,-273.71 90.77,155.25 478,-265.76l71.32 -84.74c9.87,-17.36 128.41,-367.31 322.7,-543.51 88.4,-80.19 120.85,-47.26 279.23,-49.07l9.25 -285.83c0.78,-2.35 5.92,-13.34 6.65,-15.33 19.43,-52.68 12.99,-16.01 12.19,-32.36 213.36,-155.66 94.16,-1604.89 -49.13,-1719.63 12.73,-11.45 47.19,-144.69 42.36,30.1 -1.73,61.89 -0.88,47.95 -28.74,101.53l-198.95 194.71c-239.76,150.35 -270.84,-112.2 -182.3,229.98 33.56,129.66 68.28,543.39 -25.81,769.88 0,-173.62 9.02,-374.75 -0.63,-545.52l-146.47 -436.36z"/>
    <path class="fil0" d="M13007.62 -349.95c512.54,0 683.55,3.3 1048.78,178.93 598.92,288.04 428.17,453.86 670.11,459.85 143.52,48.04 157.09,56.53 294.47,-0.49 52.34,-206.23 142.04,-123.3 -49.12,-245.34 82.67,-5.71 295.58,-128.43 442.56,147.1 144.49,-136.42 55.46,66.67 49.11,-147.1 35.86,-161.19 78.43,1.89 -43.2,-199.09l-525.64 -509.4c-246.93,-170.52 -591.59,-399.99 -953.83,-421.24l195.98 147.12c-253.92,-3.85 -263.43,-49.13 -491.18,-49.13 108.33,-133.92 290.8,-82.55 147.96,108.26l-46.44 25.53c-92.27,33.24 -63.47,-58.96 -150.63,13.57 14.99,-6.51 -1.81,-194.25 49.73,17.62 48.14,197.94 25.23,-14.46 -0.62,129.74 -110.53,71.43 -115.09,69.02 -235.25,125.49 -33.1,15.55 75.98,70.98 -255.93,70.98 66.16,-81.81 198.42,-28.97 349.95,9.19l141.23 40.42c-81.96,0 -277.9,-12.65 -348.78,-7.11 -173.78,13.57 -210.61,32.22 -289.26,105.1z"/>
    <path class="fil0" d="M16298.31 11782.57l196.44 97.35c-105.8,-250.92 165.59,-212.87 248.95,-238.09 13.79,-4.17 28.92,-9.92 42.12,-14.53 14.62,-5.08 33,-14.59 45.38,-19.35 13.06,-5.02 33.2,-11.74 47.11,-22.1 -74.5,-179.25 36.54,-93.01 -84.75,-147.59 63.51,0 836.3,85.82 993.7,-109.17 105.05,-130.13 -15.22,-87.18 -15.4,-87.32 -275.98,-92.49 -615.5,220.36 -1147.93,-79.78 -139.93,-78.87 -270.04,-201.22 -343.01,-345.27 -119.8,-236.47 -47.16,-342.96 -31.73,-605.94l-147.12 146.86c3.08,-234.79 -46.14,-118.47 -49.61,-196.47 -74.07,297.54 32.51,26.1 -169.36,186.24 -106.7,84.64 -95.93,5.4 -125.34,157.6l-90.51 -127.64c-123.31,-164.91 128.34,-13.19 -89.48,-66.83l32.63 -198.24c-108.23,71.73 -81.97,-45.62 -142.27,207.16 -49.6,207.82 65.59,663.01 157.18,858.8 93.17,199.2 266.44,412.23 445.43,540.54 174.07,124.76 104,91.26 227.57,63.77z"/>
    <path class="fil0" d="M3478.37 7361.9c184.63,453.56 1286.92,801.61 1672.76,834.68 918.99,78.76 759.91,-718.25 377.06,-821.67 -90.85,-24.55 -521.8,-62.37 -625.14,-62.37 132.21,102.13 -197.1,91.91 245.1,98l-314.85 14.91c-57.08,-3.34 -32.99,-7.76 -89.48,1.85 -586.8,99.75 -378.99,-15.71 -577.79,-102.64 -226.54,88.74 55.83,72.69 -245.6,140.39 -114.85,-194.68 28.53,-151.82 -162.57,-217.65 -50.51,-17.39 -126.3,7.82 -279.49,-29.81 14.78,6.99 86.28,40.43 97.99,46.08 0,130.94 32.65,97.97 -97.99,98.23z"/>
    <path class="fil0" d="M10233.9 8054.34c63.05,155.37 66.76,319.32 107.87,497.27 248.63,-61.12 109.38,-67.28 205.24,-111.16l145.53 -37.14c5.71,-1.05 23.05,-4.23 27.62,-5.04 4.5,-0.8 19.13,-0.51 27.08,-5.12 2.83,-99.51 -0.79,-201.16 3.11,-298.68l61.62 -284.78 -34.5 -2530.31c-6.17,13.5 -9.64,31.75 -12.23,42.8 -2.57,11.02 -8.17,29.52 -11.09,42.99 -2.91,13.38 -6.24,28.66 -9.14,43.19l-24.57 152.33c-68.39,241.04 29.45,-20.99 -31.7,66.07l-124.14 96.4c-189.72,105.82 -139.06,23.27 -237.12,148.86l-93.58 2182.32z"/>
    <path class="fil0" d="M10233.9 8054.34l-27.78 2459.72c129.66,52.64 18.58,-21.31 86.79,99.06l47.31 108.91c3.8,9.02 7.38,27.41 14.74,39.32 8.94,-9.91 20.69,-40.94 24.73,-31.51 17.17,40.03 12.35,-71.59 118.14,-86.41 193.4,-27.07 -167.33,102.39 200.96,17.56 72.07,-188.2 0.75,-359.17 119.06,-512.07l-5.88 -2339.23 -61.62 284.78c-3.9,97.52 -0.28,199.17 -3.11,298.68 -7.95,4.61 -22.58,4.32 -27.08,5.12 -4.57,0.81 -21.91,3.99 -27.62,5.04l-145.53 37.14c-95.86,43.88 43.39,50.04 -205.24,111.16 -41.11,-177.95 -44.82,-341.9 -107.87,-497.27z"/>
    <path class="fil0" d="M7358.73 5298.93c49.53,112.85 638.74,733.14 785.9,736.77l441.82 -147.84c-219.58,32.25 -79.38,78 -48.62,196.48 109.39,41.06 69.61,43.38 245.59,49.12l228.29 450.59c6.11,9.52 16.05,22.48 21.75,30.91l44.66 58.79c11.39,0.14 30.1,-16.41 33.74,-5.3l162.73 5.3 -49.1 -245.34c85.71,-352.39 -643.86,-1286.63 -982.38,-1424.44 34.31,246.73 172.01,-23.58 -39.19,137.82l-157.53 -138.06c-39.96,203.15 -98.23,85.46 -178.92,90.4l-118.46 18.03c-228.4,51.9 -247.01,172.57 -439.39,88.04 40.45,-52.8 87.12,0.29 196.22,49.61 -92.47,119.8 109.88,225.13 -147.11,49.12z"/>
    <path class="fil0" d="M6720.19 1811.5c77.16,175.8 -7.05,52.31 126.82,169.49 73.32,64.19 104.85,62.98 176.29,117.06 421.12,318.83 364.26,760.39 767.08,816.77 240.13,33.6 520.33,-103.91 504.46,-462.35 -7.09,-159.94 -174.81,-462.98 -242.51,-545.35 -126.12,-153.47 -8.41,-66.1 -202.17,-144.97 9.1,218.61 103.91,6.04 -49.12,147.11 -82.76,-123.61 -213.94,-309.89 -355.77,-330.46l-190.61 -11.76c-98.23,-2.68 -184.51,9.26 -269.61,10.47l-150.09 -14.02c-127.89,-23.87 -7.95,-61.5 -132.51,-1.13l-80.74 52.67c138.91,170.58 402.95,129.52 98.48,196.47z"/>
    <path class="fil0" d="M15217.94 1614.8c564.92,0 811.73,26.02 1247.66,176.53 507.5,175.24 706.12,458.34 864.19,462.24 225.26,-0.28 67.27,27.92 222.55,-70.9l415.76 -273.41 -48.64 -147.11c-5.4,-218.68 -976.51,-722.03 -1227.96,-736.79l97.91 110.42c9.74,8.52 30.02,29.12 48.96,36.7 -408.25,-25.19 -37.8,-22.68 -203.12,56.01 -64.06,30.51 -32.58,-7.11 -126.98,42.47 64.87,169.85 21.44,1.43 143.96,196.47l-50.03 59.54c-7.42,5.91 -41.65,37.65 -52.1,42.64 -159.97,76.44 -70.45,-110.94 -251.79,45.42 -159.44,-16.18 -331.41,-75.14 -487.32,-92.91 -44.19,-5.03 -261.94,-14.38 -300.12,-10.39l-292.93 103.07z"/>
    <path class="fil0" d="M14235.32 13305.25c84.84,208.39 24.82,66.09 133.35,213.79l223.3 415.31c11.79,32.21 27.79,91.08 34.03,107.39 58.84,153.75 -23.5,55.01 51.39,98.53 192.88,161.1 74.64,439.48 0.25,638.04 177.62,-142.99 145.08,218.11 147.12,-267.87 12.67,6.24 31.56,1.61 38.69,17.31 0.04,0.06 50.67,44.9 161.83,23.75 193.05,-36.72 57.7,58.07 143.3,-126.36 70.67,111.64 54.84,78.28 76.68,268.13 58.52,-64.01 121.94,123.61 70.92,-209.43 0,230.27 -49.12,269.34 -49.12,540.06 6.56,-17.29 18.24,-57.05 26.34,-48.84 8.61,8.73 21.82,-35.78 32.64,-49.15l88.13 -97.99c125.76,-0.75 17.9,-931.31 -8.02,-1023.72 -36.07,-128.66 -94.09,-288.91 -163.16,-426.16 -176.73,-351.16 -180.58,-306.65 -319.75,-367.75 -24.7,151.63 -234.45,388.56 -270.65,399.31 -191.78,56.95 -197.03,-121.35 -217.84,-162.32l-199.43 57.97z"/>
    <path class="fil0" d="M10206.12 10514.06l6.38 1353.01 36.7 934.48c279.79,-107.09 33.38,32.54 161.28,-79.54 24.2,-21.22 80.47,-111.39 82.2,-125.24 15.5,-124.36 8.93,-26.36 -26.69,-83.51 -5.51,-8.86 -65.37,-43.86 -76.5,-55.85 11.39,13 -101.8,63.96 109.8,22.22 146.31,-28.86 167.89,-94.13 227.75,-190.07 100.76,-161.45 -74.85,23.02 77.18,-132.53l13.63 -2008.11c-118.31,152.9 -46.99,323.87 -119.06,512.07 -368.29,84.83 -7.56,-44.63 -200.96,-17.56 -105.79,14.82 -100.97,126.44 -118.14,86.41 -4.04,-9.43 -15.79,21.6 -24.73,31.51 -7.36,-11.91 -10.94,-30.3 -14.74,-39.32l-47.31 -108.91c-68.21,-120.37 42.87,-46.42 -86.79,-99.06z"/>
    <path class="fil0" d="M12221.46 9375.76c43.71,243.73 -47.71,48.81 107.95,239.19 19.84,24.27 112.25,105.08 149.66,141.72 139.26,136.33 187.2,180.28 338.12,300.21 203.95,162.08 510.9,474.82 848.38,273.97 214.46,-127.62 424.62,-545.07 -43.14,-784.5 -196.62,-100.65 -233.88,-108.67 -382.79,-255.66 -208.23,-205.53 -145.56,-212.93 -379.39,-308.12 245.65,302.04 -181.25,-281.66 77.75,154.27 95.53,160.77 88.16,106.49 196.96,188.37l117.75 99.19 -188.48 42.12c-88.53,13.15 -63.53,14.16 -146.04,-4.04 -175.38,-38.68 -200.43,-113.09 -356.44,36.56 -122.07,117.1 -295.79,-86.25 -297.88,-92.63 -7.61,-23.28 -26.31,-23.91 -42.41,-30.65z"/>
    <path class="fil0" d="M11779.4 8589.87c16.83,286.84 288.72,776.18 442.06,785.89 16.1,6.74 34.8,7.37 42.41,30.65 2.09,6.38 175.81,209.73 297.88,92.63 156.01,-149.65 181.06,-75.24 356.44,-36.56 82.51,18.2 57.51,17.19 146.04,4.04l188.48 -42.12 -117.75 -99.19c-108.8,-81.88 -101.43,-27.6 -196.96,-188.37 -259,-435.93 167.9,147.77 -77.75,-154.27 4.57,-74.27 7.86,-61.4 -38.15,-156.74l-195.97 -391.73c-120.17,-246 -16.43,-98.82 -158.82,-188.3 90.18,230.22 65.76,103.51 49.12,294.46 -120.09,-103.89 -98.84,-122.41 -147.37,-294.71 36.07,29.17 110.42,-30.33 5.06,104.16 -90.88,116.01 74.2,16.48 -152.41,92.31 -33.5,-53.66 -40.05,-53.52 -59.26,-134.28 -63.65,-267.85 5.56,-58.45 10.14,-62.19 -85.86,11.51 -25.81,-26.98 -61.96,47.09 -99.66,204.25 43.3,-166.86 -22.39,78.69l-14.38 70.69c-16.01,3.22 -36.69,9.09 -47.95,10.15l-83.32 6.2c-10.68,0.29 -49.3,-11.57 -65.12,-16.35 -0.18,234.01 9.61,-56.17 60.78,208.66l-11.74 184.29c-50.54,-204.97 -3.23,-135.62 -147.11,-245.1z"/>
    <path class="fil0" d="M11632.04 8098.69c2.36,147.4 14.26,221.78 39.42,311.34 24.35,86.67 10.17,45.5 39.49,100.16 71.37,133 -2.75,44.29 68.45,79.68 143.88,109.48 96.57,40.13 147.11,245.1l11.74 -184.29c-51.17,-264.83 -60.96,25.35 -60.78,-208.66 15.82,4.78 54.44,16.64 65.12,16.35l83.32 -6.2c11.26,-1.06 31.94,-6.93 47.95,-10.15l14.38 -70.69c65.69,-245.55 -77.27,125.56 22.39,-78.69 36.15,-74.07 -23.9,-35.58 61.96,-47.09 -4.58,3.74 -73.79,-205.66 -10.14,62.19 19.21,80.76 25.76,80.62 59.26,134.28 226.61,-75.83 61.53,23.7 152.41,-92.31 105.36,-134.49 31.01,-74.99 -5.06,-104.16 48.53,172.3 27.28,190.82 147.37,294.71 16.64,-190.95 41.06,-64.24 -49.12,-294.46 82.05,-220.24 -33.67,-354.85 -49.38,-593.29 -15.65,-237.69 49.13,-385.12 49.13,-683.55 -101.35,122.29 -98,-183.26 -98,245.34l-0.48 -0.24c-8.3,126.71 -22.55,129.8 -147.12,275.66 -98.64,-27.44 -103.62,-52.73 -116.7,-59.93 -7.41,-4.09 -55.93,-38.37 -86.7,-51.99 -72.18,-31.95 -27.64,-22.3 -146.74,-24.34l26.31 94.52c-1.84,5.38 -8.52,20.07 -11.48,25.52 -163.58,301.34 -143.26,-255.16 -161.39,231.42 -13.7,367.92 54.4,183.81 54.4,589.75 -6.56,-17.31 -17.95,-36.28 -26.33,-48.86l-73.84 -98.28c-8.92,-35.14 -33.31,-30.83 -46.95,-48.84z"/>
    <path class="fil0" d="M16691.5 9817.58c358.98,-21.05 598.31,-112.31 872.68,109.45 198.53,160.46 277.62,510.24 627.64,415.07 260.04,-70.71 412.53,-388.01 230.72,-633.46 -144.01,-194.41 -403.43,-436.19 -650.43,-480.48 108.99,67.57 -167.98,162.5 195.99,49.38 -8.18,14.16 -36.57,64.53 -42.35,77.52 -4.74,10.67 -12.02,25.12 -16.56,36.65l-39.34 180.04c-448.8,-46.66 -85.47,-24.05 -294.46,-98.24 3.7,-2.51 7.59,10.06 7.46,11.15 -10.86,98.58 -43.75,39.17 -221.84,116.18 -137.77,59.59 90.4,41.77 -155.55,45 5.98,-1.49 7.81,-65.5 80.54,6.19 2.68,2.65 5.78,21.86 7.49,24.73l-12.82 77.26c-139.02,-85.52 -148.69,-115.63 -350.55,-79.31 -275.35,49.54 -238.57,142.82 -238.62,142.87z"/>
    <path class="fil0" d="M18705.12 6232.17c43.46,242.44 28.09,133.5 174.91,318.79 47.61,60.08 45.26,73.27 106.02,138.68 81.2,87.43 56.26,65.01 112.01,82.84 123.97,-56.64 -5.69,-120.75 96.57,-124.82 201.38,-7.98 -146.39,-15.69 45.46,17.68l362.47 -124.94c7.73,-3.67 23.03,-11.69 35.56,-14 -45.78,-173.8 -30.95,-70.98 0.49,0l49.12 -147.11c42.81,-192.52 -4.79,-130.87 -245.37,-442.51 -54.78,-70.94 -86.51,-117.66 -154.2,-186.83 -141.97,-145.07 -79.74,-119.21 -288.09,-156.55 -5.38,73.61 92.05,177.45 -147.84,196.47 192.3,37.55 84.01,13.09 194.68,141.14 -269.25,63.53 -89.14,-39.01 -243.8,55.33 97.98,427.98 68.07,120.2 147.35,393.2l-245.34 -147.37z"/>
    <path class="fil0" d="M10151.17 13157.89c-11.96,193.4 -30.05,381.82 -54.32,537.47l109.59 192.24c4.15,-2.89 14.39,-13.11 18.47,-14.3l88.55 72.84c5.15,-11.86 18.68,28.89 32.02,39.25 88.35,-94.25 -35.13,24.39 113.52,-70.22 12.24,-7.79 51.31,-30.52 63.5,-39.47 191.55,-140.5 140.25,-107.28 187.05,-283.41 65.87,-247.89 87.23,-403.37 87.23,-679.99l-445.37 545.29c-298.29,395.72 -30.92,-205.03 -94.93,93.25 0,-43.37 4.72,-162.15 -5.08,-198.2 -44.54,-163.96 -9.42,-92.8 -100.23,-194.75z"/>
   </g>
   <g>
    <path class="fil0" d="M24958.05 30349.13c40.39,137.23 -1.65,22.04 56.29,155.74 439.35,-112.71 -65.43,-156.84 579.32,-73.69 380.33,49.06 1519.46,-3.91 2018.52,8.86 434.11,11.1 317.71,-3.22 399.18,-139.78 -476.28,179.77 -1812.99,34.69 -2463.41,97.76 0.06,-450.8 -11.21,-105.62 98,-245.11 124,-39.67 -45.2,65.76 66.86,-41.32 142.81,-136.48 916.17,-1461.75 1102.1,-1737.07 131.69,-195 1087.32,-1681.26 1139.61,-1905.75l-2897.99 0 0 540.31 1915.62 0 -2014.1 3340.05z"/>
    <path class="fil0" d="M2510.86 27942.33c-41.62,113.33 -75.2,267.16 -97.74,399.22 12.04,10.76 31.34,9.29 37.52,30.63 6.25,21.64 57.85,45.91 66.78,54.14 112.33,103.61 43.44,186.17 331.01,195.91 20.93,-113.54 102.73,-303.75 6.76,-336.07 0,450.7 -12.35,608.84 98.24,982.13 44.69,121.3 112.54,244.97 147.35,392.95l49.12 -147.12c74.87,-307.73 -303.85,-586.99 -56.6,-1431.67 449.24,-1534.77 2383.7,-1319.31 2822.49,-252.07 24.7,60.07 27.13,88.28 52.04,144.5 54.41,122.79 30.79,90.68 79.82,115.05 100.37,83.83 69.56,55.62 90.88,299.21 1.4,16.17 1.25,27.18 2.72,43.87 1.56,17.57 3.28,27.84 4.98,46.03 45.54,487.56 -83.56,335.72 32.02,695.1 3.91,12.17 10.37,30.27 16.51,45.03 0.7,-298.38 49.12,-631.75 49.12,-982.13 314.46,-65.4 267.88,-88.91 294.71,-196.72 -71.07,87.54 90.48,400.69 26.73,798.41 -2.81,17.57 -23.81,130.38 -21.18,182.42 12.81,252.78 -32.51,-163.96 14.37,99.14 3.22,18.04 10.3,34.65 13.56,49.33 3.32,14.91 9.05,33.54 15.64,49.55l-123.6 116.48 -60.22 276.9c131.52,-171.25 -31.58,31.5 134.95,-98.18 44.9,-22.32 30.68,5.45 81.45,-113.43 26.79,-62.73 52.59,-166.01 68.33,-227.75 254.2,-997.15 -278.46,-2308.25 -1309.15,-2625.65 -637.9,-196.45 -1382.48,-194.86 -1896.69,107.01 -399.47,234.52 -815.03,596.45 -968.12,1049.28 -69.49,205.55 -61.72,65.68 -3.8,238.5z"/>
    <path class="fil0" d="M9927.77 27058.19c35.74,71.92 170.9,94.54 316.9,174.07 651.11,354.7 587.23,881.77 714.84,955.91 13.88,12.42 24.36,17.66 29.24,47.62 2.47,15.27 198.07,370.05 -8.6,880.47l71.24 -89.39c7.64,-13.14 20.25,-27.51 28.51,-43.6 71.87,-140.09 69.55,-335.96 54.85,-484.45 8.39,125.32 -33.02,483.92 203.88,422.12 151.54,-39.52 114.01,-86.28 131.56,-238.34 12.03,-104.21 7.15,-261.45 -19.26,-330.61l86.84 277.8c4.07,-175.25 -36.56,-300.51 -37.72,-490.99 189.15,-489.69 -864.3,-1731.69 -1424.68,-1522.91 -675.82,-163.41 -1211.43,-106.17 -1956.33,-120.69l25.94 3264.52c9.08,214.39 -67.67,884.8 63.64,982.61l1.83 -1811.63c-39.1,386.88 -56.75,627.34 172.84,719.66 64.84,26.08 -5.87,-28.89 62.59,18.98l99.05 -297.06 90.42 -2461.15c367.81,-0.08 985.93,-57.39 1292.42,147.06z"/>
    <path class="fil0" d="M10713.91 30349.38l-71.01 -57.44c-149.24,-102.84 -267.35,-18.24 -277.6,-286.63 -383.84,62.45 -365.45,294.72 -1665.25,294.72l0 -3290.95 1227.72 49.11c-306.49,-204.45 -924.61,-147.14 -1292.42,-147.06l-90.42 2461.15 -99.05 297.06c-68.46,-47.87 2.25,7.1 -62.59,-18.98 -229.59,-92.32 -211.94,-332.78 -172.84,-719.66l-1.83 1811.63c-131.31,-97.81 -54.56,-768.22 -63.64,-982.61l-25.94 -3264.52c744.9,14.52 1280.51,-42.72 1956.33,120.69 -98.52,-124.71 -11.46,-54.32 -187.39,-108.91 -4.3,-1.34 -191.45,-31.22 -211.76,-32.97l-1614.71 -5.24 0 4371.55c898.22,0 1630.25,124.89 2425.44,-273.26 230.55,-115.44 141.85,-23.76 226.96,-217.68z"/>
    <path class="fil0" d="M-1565.97 28482.64l301.29 -52.2c209.61,-77.96 90.53,-74.62 190.39,19.59 0,-241.5 -18.65,-7.52 97.99,-114.51 73.25,-23.43 47.49,23.95 142.29,-249.1 71.79,-206.79 259.7,-828.65 398,-929.98l532.16 1534.38c121.3,299.24 9.74,104.98 106.4,135.89l147.1 195.99c-13.08,-251.21 -31.72,-183.46 -71.82,-384.87l184.64 36.81c327.12,225.75 -283.31,-84.21 83.9,66.12l147.97 -12.78 -49.49 -196.22c68.85,-283.02 -610.76,-1521.05 -737.02,-2062.99l-736.78 0c-68.57,142.93 -136.27,340.04 -196.39,491.28 -107.22,269.78 -615.96,1297.84 -540.63,1522.59z"/>
    <path class="fil0" d="M-6919.9 29438.87l0 -1061.35c16.27,217.02 -40.09,180.05 95.82,186.82 211.97,10.55 -9.98,44.32 200.03,-187.49 111.52,275.82 47.18,748.78 49.82,1080.87l33.31 1284.18c33.7,-56.67 59.43,-2975.4 26.65,-3290.51 279.61,72.34 84.05,-32.57 183.81,147.11 -7.98,129.67 -63.42,-42.69 36.88,158l206.98 289.57c149.3,173.69 27.73,89.97 149.32,92.98 180.21,103.62 73.71,-109.54 147.11,195.98 136.45,-150.59 316.87,-18.44 441.78,-84.89l49.9 -62.22c8.45,-137.38 37.76,38.3 -12.11,-96.07l-1144.32 -1532.31c-3.95,-3.72 -14.75,-13.62 -22.66,-19.77 -253.35,-73.03 -287.04,19.01 -562.22,-26.45 97.7,352.37 41.95,1704.12 45.51,2165.79 2.8,359.85 21.14,719.56 24.51,1080.61 2,214.72 -84.43,882.54 49.88,982.61l0 -1303.46z"/>
    <path class="fil0" d="M17096.48 29092.83l10.42 1693.41 2399.23 -8.78 0 -477.43c-174.31,-72.02 -1494.74,-118.52 -1817.39,-13.09l-35.99 7.61c-8.51,-9.81 -17.49,-24.25 -21.61,-32.4 -110.3,-217.88 -89.5,-651.26 -89.5,-1288.6 -59.82,77.35 -107.29,1.74 -295.43,-39.43l-122.88 478.28c-5.1,-114.94 -1.41,-223.53 -26.85,-319.57z"/>
    <path class="fil0" d="M13086.12 30781.75l43.3 -1864.55c51.98,244.08 83.43,-34.27 317.69,196.64l15.39 -498.9 69.96 2161.72c74.63,-131.21 43.46,-3950.31 65.26,-4277.83l-607.5 3.46c58.86,596.81 14.48,2421.33 24.31,3257.43 2.11,180.22 4.65,360.37 5.75,540.61 0.46,75.1 -3.25,177.73 1.3,249.52 14.96,235.73 32.74,192.99 64.54,231.9z"/>
    <path class="fil0" d="M-4119.89 29464.76c88.41,-95.41 53.84,-35.26 93.33,-193.02l1.3 -2724.23 484.72 -20.84 -53.02 4211.96 -56.86 -1447.59c-172.46,-44.08 -29.65,-25.42 -164.63,3.01 -1.8,0.37 -118.35,19.14 -131.96,23.61l-4.14 510.29c-91.5,-116.83 -54.22,134.42 -70.75,-117.36l-195.98 -49.1c70.03,218.23 144.56,136.26 -442.31,196.71 39.67,221.29 22.49,136.6 146.21,298.43 63.6,83.19 95.97,123.01 169.6,220.52 127.61,169.03 212.9,299.17 322.73,463.17l540.3 0 0 -4371.55 -638.54 0 0 2995.99z"/>
    <path class="fil0" d="M20734.09 29955.95c63.46,443.53 674.22,906.25 1276.19,934.41 602.75,28.21 1106.01,-54.74 1464.86,-498.16 155.37,-191.99 63.78,6.38 107.84,-239.29 -27.57,9.27 -110.08,18.17 -147.12,49.12 42.97,-147.79 125.21,-116.62 -140.04,-45.19 -126.98,34.21 -283.4,22.23 -302.51,93.81 -119.81,-92.46 -225.13,109.89 -49.12,-147.1l-198.77 97.52c-221.15,114.69 -362.15,179.84 -665.96,131.33 -241.81,-38.61 -402.47,-109.09 -570.18,-270.83 -82.8,-79.85 -68.07,-20.67 -87.77,-154.5 -49.33,40.43 95.98,62.94 -181.32,55.33 -207.7,-5.71 -35.3,19.21 -170.1,-96.59l-335.75 -204.09c9.87,189.57 3.87,159.19 49.12,294.45l-49.37 -0.22z"/>
    <path class="fil0" d="M17096.48 29092.83c25.44,96.04 21.75,204.63 26.85,319.57l122.88 -478.28c188.14,41.17 235.61,116.78 295.43,39.43 0,637.34 -20.8,1070.72 89.5,1288.6 4.12,8.15 13.1,22.59 21.61,32.4l16.53 -3798.04 -565.34 11.12 -7.46 2585.2z"/>
    <path class="fil0" d="M24958.05 30349.13l-200.92 195.43c-55.63,91.3 -81.7,153.28 -93.55,295.76l3389.17 0 0 -540.29 -2406.8 0 0 -147.12c-109.21,139.49 -97.94,-205.69 -98,245.11 650.42,-63.07 1987.13,82.01 2463.41,-97.76 -81.47,136.56 34.93,150.88 -399.18,139.78 -499.06,-12.77 -1638.19,40.2 -2018.52,-8.86 -644.75,-83.15 -139.97,-39.02 -579.32,73.69 -57.94,-133.7 -15.9,-18.51 -56.29,-155.74z"/>
    <path class="fil0" d="M-1565.97 28482.64c-135.89,85.39 -40.06,-3.09 -123.93,119.17 -10.22,14.89 -63.66,136.89 -64.47,138.85 -108.7,265.89 -85.35,215.68 -57.19,331.39 -58.25,245.36 -63.01,48.35 49.12,196.24 -66.21,-78.69 -98.65,-0.82 134.09,23.49l238.72 -33.42c160.27,-89.01 22.21,-124.89 314.74,-139.66 383.6,-19.36 836.61,2.23 1228.32,2.23 93.85,14.27 163.89,253.68 294.95,196.97l-1624.37 6.99c-213.54,75.41 -40.94,-49.04 -193.02,139.87 620.17,0 1094.43,-48.63 1718.91,-48.63 62.86,88.13 30.21,57.42 71.94,114.16 87.87,119.49 3.11,46.38 75.41,82.31l291.53 -174.83c277.14,-132.76 -34.67,219.85 101.42,-71.25 9.42,136.45 24.92,122.53 49.37,245.59 194.52,0 34.36,32.67 98.23,-97.99 46.54,-191.29 -261.57,-852.6 -268.85,-863.44 -82.33,-122.68 10.79,-34.16 -124.1,-118.92l49.49 196.22 -147.97 12.78c-367.21,-150.33 243.22,159.63 -83.9,-66.12l-184.64 -36.81c40.1,201.41 58.74,133.66 71.82,384.87l-147.1 -195.99c-49.32,188.38 110.61,138.19 -239.21,157.13l-1136.11 -10.01c57.4,-246.42 179.15,-343.17 196.47,-638.31 -116.64,106.99 -97.99,-126.99 -97.99,114.51 -99.86,-94.21 19.22,-97.55 -190.39,-19.59l-301.29 52.2z"/>
    <path class="fil0" d="M3667.56 30103.55c184.71,184.64 73.49,-163.43 32.22,102.65 -2.58,16.61 -51.43,74.14 -51.7,74.31l-498.43 68.87c316.2,720.4 2492.35,700.38 2799.75,0 -130.64,-63.86 -97.97,96.3 -97.97,-98.23 117.94,-78.98 195.93,-199.96 294.7,-249.21l-261.47 98.8c-108.5,41.77 -201.51,28.63 -280.75,2.56 88.25,-124.07 42.16,-58.85 99.66,-196.23 -360.68,64.67 -232.78,324.58 -944.77,431.61 -555.82,83.55 -831.75,-178.54 -1091.24,-235.13z"/>
    <path class="fil0" d="M23227.34 29490.3c112.14,188.06 70.21,88.84 106.53,-114.17 11.64,-65.04 3.26,-229.49 3.26,-304.31l0.07 -441.39c264.59,-12.67 147.94,-42.1 245.78,127.92 100.38,-50.53 21.99,59.59 98.48,-170.12l0 446.57c0,52.12 -10.21,198.63 -6.79,234.94 7.62,81.16 1.15,72.02 29.05,148.84 48.08,132.35 -2.03,55.79 82.19,144.41l24.92 -3066.79 -588.14 7.13 4.65 2986.97z"/>
    <path class="fil0" d="M-4119.89 29464.76c33.76,75.91 53.2,138.47 97.99,245.83 16.53,251.78 -20.75,0.53 70.75,117.36l4.14 -510.29c13.61,-4.47 130.16,-23.24 131.96,-23.61 134.98,-28.43 -7.83,-47.09 164.63,-3.01l56.86 1447.59 53.02 -4211.96 -484.72 20.84 -1.3 2724.23c-39.49,157.76 -4.92,97.61 -93.33,193.02z"/>
    <path class="fil0" d="M-6330.46 27598.5c-99.76,-179.68 95.8,-74.77 -183.81,-147.11 32.78,315.11 7.05,3233.84 -26.65,3290.51l-33.31 -1284.18 -345.67 -18.85 0 1303.46c-134.31,-100.07 -47.88,-767.89 -49.88,-982.61 -3.37,-361.05 -21.71,-720.76 -24.51,-1080.61 -3.56,-461.67 52.19,-1813.42 -45.51,-2165.79 275.18,45.46 308.87,-46.58 562.22,26.45 -126.14,-115.69 -333.59,-71 -589.43,-71l0 4371.55 638.55 0 -3.69 -3047.2c32.11,-184.34 -18.81,-99.44 101.69,-194.62z"/>
    <path class="fil0" d="M20733.85 29728.95c-63.04,-1220.3 -48.87,-1925.08 -49.32,-3169.97l450.74 -25.35c8.25,944.91 -25.86,2095.29 63.59,3016.58 -83.58,-86.73 -34.18,-5.22 -89.75,-134.39 -41.06,-95.43 -22.47,-39.12 -35.65,-145.13 -3.1,-24.9 2.33,-208.72 3.04,-248.04 3.12,-171.99 1.68,-344.11 1.68,-516.15 89.27,270.3 -84.74,61.08 -302.35,172.61l-41.98 1049.84zm0.24 227l49.37 0.22c-45.25,-135.26 -39.25,-104.88 -49.12,-294.45l335.75 204.09c134.8,115.8 -37.6,90.88 170.1,96.59 277.3,7.61 131.99,-14.9 181.32,-55.33 -257.19,-362.64 -196.23,-1050.2 -196.23,-1620.91 0,-605.79 0,-1211.59 0,-1817.39l-638.54 0c0,941.35 -139.27,2804.69 147.35,3487.18z"/>
    <path class="fil0" d="M10959.51 28188.17c0,594.89 34.65,1025.54 -335.4,1481.81 -124.44,153.42 -246.75,192.84 -258.81,335.33 10.25,268.39 128.36,183.79 277.6,286.63l71.01 57.44c163.07,10.03 297.71,-154.03 428.42,-308.59 420.1,-496.72 449.84,-955.75 459.36,-1510.77 8.01,-466.5 -6.42,-328.12 -101.64,-391.22 1.16,190.48 41.79,315.74 37.72,490.99l-86.84 -277.8c26.41,69.16 31.29,226.4 19.26,330.61 -17.55,152.06 19.98,198.82 -131.56,238.34 -236.9,61.8 -195.49,-296.8 -203.88,-422.12 14.7,148.49 17.02,344.36 -54.85,484.45 -8.26,16.09 -20.87,30.46 -28.51,43.6l-71.24 89.39c206.67,-510.42 11.07,-865.2 8.6,-880.47 -4.88,-29.96 -15.36,-35.2 -29.24,-47.62z"/>
    <path class="fil0" d="M20733.85 29728.95l41.98 -1049.84c217.61,-111.53 391.62,97.69 302.35,-172.61 0,172.04 1.44,344.16 -1.68,516.15 -0.71,39.32 -6.14,223.14 -3.04,248.04 13.18,106.01 -5.41,49.7 35.65,145.13 55.57,129.17 6.17,47.66 89.75,134.39 -89.45,-921.29 -55.34,-2071.67 -63.59,-3016.58l-450.74 25.35c0.45,1244.89 -13.72,1949.67 49.32,3169.97z"/>
    <path class="fil0" d="M-2155.39 29907.07c0.27,130.65 -32.7,97.99 98.23,97.99 35.35,-173.89 138.05,-249.45 49.61,-294.47 69.74,159.02 48.69,99.7 220.8,168.31 114.24,45.53 54.58,-107.03 73.92,175.28l147.11 -146.86c112.19,-86.8 132.97,-309.98 196.47,-442.32 134.84,64.7 1473.36,61.72 1524.53,52.81 280.12,-48.79 91.36,54.14 194.62,-101.68 -624.48,0 -1098.74,48.63 -1718.91,48.63 152.08,-188.91 -20.52,-64.46 193.02,-139.87l1624.37 -6.99c-131.06,56.71 -201.1,-182.7 -294.95,-196.97 -391.71,0 -844.72,-21.59 -1228.32,-2.23 -292.53,14.77 -154.47,50.65 -314.74,139.66l-238.72 33.42c-232.74,-24.31 -200.3,-102.18 -134.09,-23.49 -112.13,-147.89 -107.37,49.12 -49.12,-196.24 -12.13,8.99 -27.74,9.89 -32.96,31.04 -5.67,22.93 -51.06,51.5 -59.47,63.06 -1.03,1.4 -57.91,98.34 -59.33,101.29l-167.99 421.42c-77.4,230.71 -67.8,38.53 -24.08,218.21z"/>
    <path class="fil0" d="M13086.12 30781.75l446.34 -5.09 -69.96 -2161.72 -15.39 498.9c-234.26,-230.91 -265.71,47.44 -317.69,-196.64l-43.3 1864.55z"/>
    <path class="fil0" d="M2511.11 29416.13c18.02,307.15 425.74,927.99 638.54,933.25l498.43 -68.87c0.27,-0.17 49.12,-57.7 51.7,-74.31 41.27,-266.08 152.49,81.99 -32.22,-102.65 -41.62,-111.24 -148.45,-185.14 -234.65,-282.57l-177.43 -225.94c-91.38,-86.52 50.13,16.95 -105.58,-80.92l-49.12 147.12c-34.81,-147.98 -102.66,-271.65 -147.35,-392.95 60.51,43.68 48.02,-74.52 47.06,98.48 -14.67,11.74 -34.78,18.31 -50.71,24.67 -408.96,163.42 -266.49,-65.55 -291.55,171.55 -7.59,-18.92 -28.18,-39.22 -36.71,-48.95l-110.41 -97.91z"/>
    <path class="fil0" d="M-5249.62 29072.31c331.24,107 51.01,-170.05 490.94,146.86l0.5 -294.47c10.37,-168.73 19.73,-51.14 -206.26,-383.25 -44.96,-66.08 -67.99,-107.52 -118.8,-172.46 -153.04,-195.59 6.97,-83.54 -215.25,-181.07l-49.9 62.22c-124.91,66.45 -305.33,-65.7 -441.78,84.89 -73.4,-305.52 33.1,-92.36 -147.11,-195.98 37.05,206.61 402.56,685.75 567.5,858.53 97.44,102.07 17.92,68.24 120.16,74.73z"/>
    <path class="fil0" d="M497.25 29612.6c29.36,186.03 53.28,251.6 118.56,422.97 19.95,52.42 56.44,151.57 68.89,178.8 89.65,196.26 32.19,111 107.27,135.01 120.43,100.6 97.99,-159.75 97.99,195.99 62.24,-168.03 40.27,-188.87 0,-272.87 23.36,66.66 97.18,165.62 232.12,211.36 537.76,182.31 -108.57,-221.72 266.78,-36.73l-56.35 -196.23c39.66,-163 -88.22,-492.62 -202.28,-642.68l-92.43 -94.1c-63.87,130.66 96.29,97.99 -98.23,97.99 -24.45,-123.06 -39.95,-109.14 -49.37,-245.59 -136.09,291.1 175.72,-61.51 -101.42,71.25l-291.53 174.83z"/>
    <path class="fil0" d="M23337.13 29071.82c0,74.82 8.38,239.27 -3.26,304.31 -36.32,203.01 5.61,302.23 -106.53,114.17l-86.43 214.53 -55.47 97.48c-41.9,70.95 -17.6,27.11 -57.13,94.44 -14.95,25.47 -17.08,12.96 -51.56,89.65 -49.79,110.8 -30.2,21.64 -32.56,117.15 -176.01,256.99 -70.69,54.64 49.12,147.1 19.11,-71.58 175.53,-59.6 302.51,-93.81 265.25,-71.43 183.01,-102.6 140.04,45.19 37.04,-30.95 119.55,-39.85 147.12,-49.12 75.96,-24.29 4.98,42.77 82.39,-67.53 14.62,-20.83 57.24,-116.31 61.94,-129.41 41.51,-115.92 52.25,-183.54 51.68,-343.61l6.92 -49.37c-84.22,-88.62 -34.11,-12.06 -82.19,-144.41 -27.9,-76.82 -21.43,-67.68 -29.05,-148.84 -3.42,-36.31 6.79,-182.82 6.79,-234.94 -302.8,48.39 152.72,-7.04 -162.6,41.53 -12.74,1.96 -94.43,5.69 -105.54,5.61 -2.27,-0.01 -59.84,-9.73 -76.19,-10.12z"/>
    <path class="fil0" d="M-2155.39 29907.07c-12.13,8.99 -27.66,9.97 -32.73,31.27l-359.98 901.98 638.54 0c104.97,-198.36 304.1,-681.24 343.84,-933l-147.11 146.86c-19.34,-282.31 40.32,-129.75 -73.92,-175.28 -172.11,-68.61 -151.06,-9.29 -220.8,-168.31 88.44,45.02 -14.26,120.58 -49.61,294.47 -130.93,0 -97.96,32.66 -98.23,-97.99z"/>
    <path class="fil0" d="M-5249.62 29072.31c35.91,200.3 365.14,672.17 563.81,777.3 3.85,2.03 16.63,8.01 25.62,8.59 586.87,-60.45 512.34,21.52 442.31,-196.71 9.96,-162.02 -11.99,-132.43 -203.43,-386.08 -257.63,-341.36 -113.69,-252.76 -336.87,-350.71l-0.5 294.47c-439.93,-316.91 -159.7,-39.86 -490.94,-146.86z"/>
    <path class="fil0" d="M6047.65 28089.93c0,270.17 26.1,449.83 13.95,602.77 -18.02,227 -63.24,478.61 -14.2,624.95l-34.06 196.32c148.73,-139.88 -36.53,120.67 90.18,-105.55l35.37 -77.56c5.47,-13.6 15.72,-65.73 19.07,-81.73 11.29,271.33 -69.54,118.66 94.58,176.05 172.93,60.47 173.7,-42.58 211.57,-89.53l123.6 -116.48c-6.59,-16.01 -12.32,-34.64 -15.64,-49.55 -3.26,-14.68 -10.34,-31.29 -13.56,-49.33 -46.88,-263.1 -1.56,153.64 -14.37,-99.14 -2.63,-52.04 18.37,-164.85 21.18,-182.42 63.75,-397.72 -97.8,-710.87 -26.73,-798.41 -26.83,107.81 19.75,131.32 -294.71,196.72 0,350.38 -48.42,683.75 -49.12,982.13 -6.14,-14.76 -12.6,-32.86 -16.51,-45.03 -115.58,-359.38 13.52,-207.54 -32.02,-695.1 -1.7,-18.19 -3.42,-28.46 -4.98,-46.03 -1.47,-16.69 -1.32,-27.7 -2.72,-43.87 -21.32,-243.59 9.49,-215.38 -90.88,-299.21z"/>
    <path class="fil0" d="M6047.4 29317.65c-129.49,81.38 -43,5.57 -127.78,115.24l-182.83 312.55c-60.74,120.32 -65.46,16.6 -33.22,161.63 -57.5,137.38 -11.41,72.16 -99.66,196.23 79.24,26.07 172.25,39.21 280.75,-2.56l261.47 -98.8c-98.77,49.25 -176.76,170.23 -294.7,249.21 0,194.53 -32.67,34.37 97.97,98.23 143.67,-3.55 -44.05,47.54 83.77,-24.42 50.58,-28.47 64.16,-45.61 101.87,-81.28 187.93,-177.72 403.8,-460.49 403.8,-729.31 -166.53,129.68 -3.43,-73.07 -134.95,98.18l60.22 -276.9c-37.87,46.95 -38.64,150 -211.57,89.53 -164.12,-57.39 -83.29,95.28 -94.58,-176.05 -3.35,16 -13.6,68.13 -19.07,81.73l-35.37 77.56c-126.71,226.22 58.55,-34.33 -90.18,105.55l34.06 -196.32z"/>
    <path class="fil0" d="M2511.11 29416.13l110.41 97.91c8.53,9.73 29.12,30.03 36.71,48.95 25.06,-237.1 -117.41,-8.13 291.55,-171.55 15.93,-6.36 36.04,-12.93 50.71,-24.67 0.96,-173 13.45,-54.8 -47.06,-98.48 -110.59,-373.29 -98.24,-531.43 -98.24,-982.13 95.97,32.32 14.17,222.53 -6.76,336.07 -287.57,-9.74 -218.68,-92.3 -331.01,-195.91 -8.93,-8.23 -60.53,-32.5 -66.78,-54.14 -6.18,-21.34 -25.48,-19.87 -37.52,-30.63 22.54,-132.06 56.12,-285.89 97.74,-399.22 -238.6,188.5 -178.06,923.56 -120.77,1203.42 26.96,131.66 48.98,234.58 121.02,270.38z"/>
    <polygon class="fil0" points="19506.13,30777.46 17106.9,30786.24 17096.48,29092.83 17103.94,26507.63 17669.28,26496.51 17652.75,30294.55 17688.74,30286.94 17688.74,26468.77 17050.2,26468.77 17050.2,30840.32 "/>
    <path class="fil0" d="M13532.46 30776.66l-446.34 5.09c-31.8,-38.91 -49.58,3.83 -64.54,-231.9 -4.55,-71.79 -0.84,-174.42 -1.3,-249.52 -1.1,-180.24 -3.64,-360.39 -5.75,-540.61 -9.83,-836.1 34.55,-2660.62 -24.31,-3257.43l607.5 -3.46c-21.8,327.52 9.37,4146.62 -65.26,4277.83zm-559.09 63.66l638.54 0 0 -4371.55 -638.54 0 0 4371.55z"/>
    <path class="fil0" d="M-6919.9 29438.87l345.67 18.85c-2.64,-332.09 61.7,-805.05 -49.82,-1080.87 -210.01,231.81 11.94,198.04 -200.03,187.49 -135.91,-6.77 -79.55,30.2 -95.82,-186.82l0 1061.35z"/>
    <path class="fil0" d="M791.97 30349.38c11.69,199.44 77.86,346.13 147.35,490.94l687.66 0c-41.87,-179.69 -139.54,-474.62 -294.47,-589.42l56.35 196.23c-375.35,-184.99 270.98,219.04 -266.78,36.73 -134.94,-45.74 -208.76,-144.7 -232.12,-211.36 40.27,84 62.24,104.84 0,272.87 0,-355.74 22.44,-95.39 -97.99,-195.99z"/>
    <path class="fil0" d="M23140.91 29704.83l86.43 -214.53 -4.65 -2986.97 588.14 -7.13 -24.92 3066.79 -6.92 49.37 49.57 -3143.59 -638.54 0 0.07 2456c1.33,492.04 -49.18,567.74 -49.18,780.06z"/>
    <path class="fil0" d="M23337.13 29071.82c16.35,0.39 73.92,10.11 76.19,10.12 11.11,0.08 92.8,-3.65 105.54,-5.61 315.32,-48.57 -140.2,6.86 162.6,-41.53l0 -446.57c-76.49,229.71 1.9,119.59 -98.48,170.12 -97.84,-170.02 18.81,-140.59 -245.78,-127.92l-0.07 441.39z"/>
   </g>
  </g>
 </g>
</svg>
